<?xml version="1.0" encoding="utf-8"?>
<!-- Generator: Adobe Illustrator 26.1.0, SVG Export Plug-In . SVG Version: 6.00 Build 0)  -->
<svg version="1.1"
	 id="Слой_1" image-rendering="optimizeQuality" shape-rendering="geometricPrecision" text-rendering="geometricPrecision" xmlns:cc="http://creativecommons.org/ns#" xmlns:dc="http://purl.org/dc/elements/1.1/" xmlns:rdf="http://www.w3.org/1999/02/22-rdf-syntax-ns#"
	 xmlns="http://www.w3.org/2000/svg" xmlns:xlink="http://www.w3.org/1999/xlink" x="0px" y="0px" viewBox="0 0 141.7 141.7"
	 style="enable-background:new 0 0 141.7 141.7;" xml:space="preserve">
<style type="text/css">
	.st0{fill:#1E1E1E;}
	.st1{fill:#484544;stroke:#484544;stroke-miterlimit:10;}
</style>
<g>
	<path class="st0" d="M110.5,126.5c-1.9,2.7-5.3,3-8,3h-50c-6,0-10.9,0-15.4,0.1h-0.2c-3,0-6.6-1.1-6.9-6.5
		c-0.2-4.3,1.3-7.8,4.4-10.5c1.7-1.5,2.3-2.5,2.4-3.7c0.1-1.2,0.8-5.4,6.4-5.4h0.9C32.8,89.7,31.5,75.1,40,60.2
		c5.9-10.3,12.8-20.1,19.4-29.3c0.7-1,0.8-1.3,0.8-1.3s0-0.2-0.4-0.8c-3.4-5.1-2.2-10.9,3-14.4c2.2-1.5,4.8-2.3,7.3-2.3
		c2.4,0,4.6,0.7,6.8,2.1c2.7,1.6,4.4,3.8,5.1,6.5c0.6,2.6,0.1,5.3-1.4,7.8c-0.8,1.2-0.8,1.2,0.2,2.4c3.3,4,2.3,7.9,1.3,10.5
		c-3.8,9.9-7.6,20.3-11.2,31c-0.6,1.6-0.5,2.9,0,3.9c0.4,0.7,1.1,1.2,2.1,1.4c0.6,0.1,1.2,0.2,1.6,0.2c0.9,0,2.2,0,3.5-4
		c1.8-5.6,3.5-11.2,5.3-17.2c0.8-2.7,1.6-5.4,2.5-8.2c0.4-1.4,1.5-2.4,2.9-2.6h0.6c1.2,0,2.3,0.5,3,1.5c5.3,7.6,11.1,16.7,13.1,27.2
		c2.3,12-3.2,21.5-9.2,28.8c0.4,0,0.7,0,1.1,0h0.5c3.9,0,6.4,2.2,6.6,5.9c0.1,0.7,0.4,1.6,2,3c2.2,1.8,3.6,3.8,4.3,6
		C111.6,120.6,112.4,123.9,110.5,126.5z"/>
	<g>
		<path class="st1" d="M89.3,49.6c6.1,8.5,10.8,16.7,12.5,25.7c2.1,11.2-3.4,20.4-10.9,28.7c-1.4,1.6-3.2,1.3-5,1.3
			c-10.5,0-21.1-0.1-31.6,0.1c-3,0.1-4.6-1.1-6.3-3C37.2,89.8,34.9,76.6,43.2,62c5.7-10,12.4-19.5,19.2-29c1.5-2.1,2.1-3.7,0.4-6.2
			c-2.2-3.3-1.6-6.9,2-9.3c3.2-2.2,6.8-2.2,10.2-0.3c3.8,2.3,4.4,6.1,2.5,9.3c-1.7,2.8-1.2,4.6,0.5,6.7c1.8,2.2,1.8,4.1,0.7,6.8
			c-4.1,10.3-7.8,20.7-11.3,31.1c-1.7,5.2,0.6,9.2,4.9,10.1c4.7,1,7.5-0.8,9.2-6.2C84.1,67,86.5,58.8,89.3,49.6z"/>
		<path class="st0" d="M70.1,15.8c1.7,0,3.3,0.5,4.9,1.4c3.8,2.3,4.4,6.1,2.5,9.3c-1.7,2.8-1.2,4.6,0.5,6.7c1.8,2.2,1.8,4.1,0.7,6.8
			c-4.1,10.3-7.8,20.7-11.3,31.1c-1.7,5.2,0.6,9.2,4.9,10.1c0.8,0.2,1.6,0.3,2.3,0.3c3.4,0,5.5-2,6.9-6.5c2.6-8.1,5-16.3,7.8-25.5
			c6.1,8.5,10.8,16.7,12.5,25.7c2.1,11.2-3.4,20.4-10.9,28.7c-1.1,1.2-2.3,1.3-3.7,1.3c-0.4,0-0.9,0-1.3,0l0,0c-0.3,0-0.7,0-1,0
			c-5.5,0-11.1,0-16.6,0c-4.7,0-9.3,0-14,0.1c-0.1,0-0.1,0-0.2,0c-2.8,0-4.5-1.1-6.1-3c-10.8-12.6-13.1-25.8-4.8-40.4
			c5.7-10,12.4-19.5,19.2-29c1.5-2.1,2.1-3.7,0.4-6.2c-2.2-3.3-1.6-6.9,2-9.3C66.5,16.4,68.3,15.8,70.1,15.8L70.1,15.8z M70.1,12.1
			c-2.5,0-5.1,0.8-7.3,2.3c-5.2,3.5-6.4,9.3-3,14.4c0.4,0.6,0.4,0.8,0.4,0.8s-0.1,0.3-0.8,1.3c-6.6,9.2-13.5,19-19.4,29.3
			c-8.8,15.4-7.1,30.4,5.2,44.6c1.8,2.1,4.3,4.3,8.9,4.3h0.3c4-0.1,8.5-0.1,14-0.1c2.8,0,5.5,0,8.3,0s5.5,0,8.3,0h1
			c0.2,0,0.4,0,0.6,0s0.5,0,0.7,0c1.2,0,4.1,0,6.4-2.5c6.9-7.7,14.4-18.2,11.8-31.9c-2-10.5-7.8-19.6-13.1-27.2
			c-0.7-1-1.8-1.5-3-1.5c-0.2,0-0.4,0-0.6,0c-1.4,0.2-2.5,1.2-2.9,2.6c-0.9,2.8-1.7,5.5-2.5,8.2c-1.8,6-3.5,11.6-5.3,17.2
			c-1.3,4-2.6,4-3.5,4c-0.4,0-1-0.1-1.6-0.2c-1-0.2-1.7-0.7-2.1-1.4c-0.5-1-0.6-2.3,0-3.9c3.6-10.7,7.4-21.1,11.2-31
			c1-2.6,2-6.5-1.3-10.5c-1-1.2-1-1.2-0.2-2.4c1.5-2.5,2-5.2,1.4-7.8c-0.7-2.7-2.4-4.9-5.1-6.5C74.7,12.8,72.5,12.1,70.1,12.1
			L70.1,12.1z"/>
		<path class="st1" d="M70.7,125.8c-11.2,0-22.4-0.1-33.7,0.1c-2.6,0-3.3-0.8-3.4-3c-0.1-3,0.8-5.5,3.1-7.5c2-1.7,3.6-3.5,3.7-6.3
			c0.1-2.3,2.3-1.9,3.9-1.9c14.9,0,29.8,0,44.6,0c2.8,0,5.6,0.1,8.4,0c2.1-0.1,3.3,0.5,3.5,2.5c0.2,2.3,1.5,3.9,3.2,5.5
			c1.4,1.2,2.6,2.7,3.2,4.4c1.6,4.7,0.3,6.3-4.9,6.3C91.9,125.8,81.3,125.8,70.7,125.8z"/>
		<path class="st0" d="M97.9,107.1c1.8,0,3,0.7,3.1,2.5c0.2,2.3,1.5,3.9,3.2,5.5c1.4,1.2,2.6,2.7,3.2,4.4c1.6,4.7,0.3,6.3-4.9,6.3
			c-10.6,0-21.2,0-31.8,0c-6.1,0-12.1,0-18.2,0c-5.2,0-10.3,0-15.5,0.1c-0.1,0-0.1,0-0.2,0c-2.5,0-3.1-0.8-3.2-3
			c-0.1-3,0.8-5.5,3.1-7.5c2-1.7,3.6-3.5,3.7-6.3c0.1-1.7,1.4-1.9,2.7-1.9c0.4,0,0.8,0,1.2,0l0,0c5.7,0,11.3,0,17,0
			c9.2,0,18.4,0,27.6,0c1.6,0,3.3,0,4.9,0c1.2,0,2.3,0,3.5-0.1C97.6,107.1,97.8,107.1,97.9,107.1L97.9,107.1z M97.9,103.4
			c-0.2,0-0.4,0-0.5,0c-1,0-2,0.1-3.4,0.1c-0.8,0-1.6,0-2.4,0s-1.6,0-2.5,0H77.5H61.4c-5.7,0-11.3,0-17,0c-0.2,0-0.3,0-0.5,0
			s-0.5,0-0.7,0c-5.6,0-6.3,4.2-6.4,5.4c-0.1,1.2-0.7,2.2-2.4,3.7c-3.1,2.7-4.6,6.2-4.4,10.5c0.3,5.4,3.9,6.5,6.9,6.5h0.2
			c4.5-0.1,9.4-0.1,15.4-0.1c3.2,0,6.4,0,9.5,0c2.9,0,5.8,0,8.6,0c9.1,0,18.2,0,27.3,0h4.6c2.7,0,6.1-0.3,8-3
			c1.9-2.6,1.1-5.9,0.3-8.2c-0.7-2.2-2.1-4.2-4.3-6c-1.6-1.4-1.9-2.3-2-3C104.3,105.6,101.8,103.4,97.9,103.4L97.9,103.4z"/>
	</g>
</g>
</svg>
