<?xml version="1.0" encoding="utf-8"?>
<!-- Generator: Adobe Illustrator 26.1.0, SVG Export Plug-In . SVG Version: 6.00 Build 0)  -->
<svg version="1.1"
	 id="Слой_1" image-rendering="optimizeQuality" shape-rendering="geometricPrecision" text-rendering="geometricPrecision" xmlns:cc="http://creativecommons.org/ns#" xmlns:dc="http://purl.org/dc/elements/1.1/" xmlns:rdf="http://www.w3.org/1999/02/22-rdf-syntax-ns#"
	 xmlns="http://www.w3.org/2000/svg" xmlns:xlink="http://www.w3.org/1999/xlink" x="0px" y="0px" viewBox="0 0 141.7 141.7"
	 style="enable-background:new 0 0 141.7 141.7;" xml:space="preserve">
<style type="text/css">
	.st0{fill:#1E1E1E;}
	.st1{fill:#484544;}
</style>
<g>
	<path class="st0" d="M126.6,66.4c-1.3-6.8-4.8-12.2-10.4-16.1c-4.5-3.2-9.6-4.8-15.2-4.8c-0.6,0-1.3,0-1.9,0.1
		c-3.5,0.2-6.9,1.1-10.1,2.6c-2,0.9-3.9,2.1-5.6,3.3c0.4-0.9,0.6-2,0.6-3.2c-0.1-2.6-0.9-5.1-2.6-7.4c-0.6-0.8-1.2-1.5-1.9-2.1
		c0.6,0.2,1.2,0.5,1.8,0.7c0.4,0.1,0.9,0.3,1.6,0.3c1,0,2-0.4,2.7-1.1c0.5-0.5,1.1-1.5,1.1-3c0-3.4,0-6.9,0-10.2
		c0-1.2-0.4-2.2-1.1-2.9c-0.8-0.6-1.7-1-2.7-1c-0.7,0-1.2,0.2-1.6,0.3c-0.6,0.2-1.3,0.5-2,0.7c0.2-0.6,0.5-1.3,0.7-1.9
		c0.7-1.8,0.2-3.1-0.3-3.8c-0.4-0.6-1.5-1.7-3.4-1.7c-1.8,0-3.7,0-5.5,0c-1.9,0.1-3.7,0.1-5.5,0c-2,0-3,1.1-3.4,1.7
		c-0.5,0.8-1,2.1-0.3,3.8c0.2,0.6,0.4,1.1,0.6,1.7c0,0.1,0,0.1,0.1,0.2c-0.6-0.2-1.2-0.4-1.7-0.7c-0.4-0.2-1-0.4-1.8-0.4
		c-1,0-2,0.4-2.7,1.1c-0.8,0.8-1.2,1.8-1.1,3.1c0,2.3,0,4.6,0,6.8c0,0.8,0,1.7,0,2.5c0,0.6,0,1.1,0.1,1.7c0.4,1.8,1.9,3,3.7,3
		c0.8,0,1.5-0.2,2.2-0.5h0.1c0.3-0.1,0.6-0.2,0.9-0.3c-1.9,1.7-3.3,3.8-4,6.3c-0.6,2.1-0.6,4.1,0,5.9c-0.5-0.4-1.1-0.8-1.6-1.1
		c-5.2-2.9-10.3-4.4-15.5-4.4c-1,0-1.9,0.1-2.9,0.2c-4.8,0.5-9.1,2.2-13,5c-3.7,2.7-6.4,6.1-8.2,10.2c-1.1,2.5-1.8,5.1-2,7.9
		c-0.3,3.1,0,6,0.8,8.7c1.9,6.4,5.9,12,12,17.1c3,2.4,6.3,4.5,9.9,6.2c-1,0.4-2.4,1.2-3,2.9c-0.5,1.1-0.9,3.4,1,5.8
		c0.4,0.5,0.8,0.8,1.3,1.1c-0.4,0.7-1,1.6-1.7,2.4l-0.2,0.2c-1.4,1.6-2.8,3.7-3.4,6.4c-0.4,2-0.2,3.7,0.7,5c0.9,1.4,2.4,2.2,4.4,2.5
		c0.3,0,0.6,0.1,1,0.1c0.1,0,0.2,0,0.3,0h0.2H64h4.2h2.5h0.2H77h6.1c6.8,0,13.6,0,20.4,0c1.2,0,2.3-0.2,3.3-0.6
		c2.4-0.9,3.9-3.3,3.5-5.8c-0.4-2.3-1.1-4.3-2.4-5.9c-0.4-0.6-0.9-1.1-1.3-1.7c-0.7-0.9-1.4-1.7-1.7-2.4c1.2-0.7,2.1-1.8,2.5-3.4
		c0.9-2.9-0.5-5.5-3.4-6.6c5-2.3,9.4-5.3,13.1-9c2.6-2.6,4.6-5.1,6.1-7.8c2-3.6,3.9-7.9,3.8-13C127.1,69.7,126.9,68.2,126.6,66.4z
		 M87,83.2c-0.6,0-1.1,0-1.5-0.1c-1.7-0.4-2.5-0.9-2.4-3.3c0.1-1.8,0.6-3.5,1.6-5.4c0.9-1.7,2.2-3,3.6-4.2s2.7-2.2,4.1-3
		c1.6-1,3.5-1.5,5.8-1.5h0.1c0.1,0,0.2,0,0.2,0c2.1,0,3.4,1.8,3.7,3.4c1,4.1-0.2,7.4-3.8,10.5c-2.1,1.8-4.8,2.9-8.2,3.3
		C89.1,83.1,88,83.2,87,83.2z M56.2,83.2c-0.7,0.1-1.5,0.1-2.2,0.1c-3,0-6-0.7-8.7-2.1c-3.3-1.9-5.3-4.4-6.2-8c0-0.3,0-0.7,0-1v-0.4
		v-0.1c0-1.9,0.3-3.3,1.1-4.4c0.8-1,1.6-1.5,2.8-1.5c0.1,0,0.3,0,0.4,0c2.9,0,5.4,1,8.2,3.2c2.2,1.7,4.4,3.6,5.5,6.1
		c1,2.1,1.4,4.1,1.3,5.9C58.4,82,57.3,83.1,56.2,83.2z"/>
	<g>
		<g>
			<path class="st1" d="M42.6,100.8c-0.6,0-1-0.2-1.4-0.3h-0.1c-4.6-1.7-8.7-4.1-12.4-7.1c-5.9-4.9-9.6-10.2-11.4-16.2
				c-0.8-2.5-1-5.2-0.7-8.1c0.3-2.6,0.9-5.1,1.9-7.4c1.6-3.8,4.2-7,7.6-9.5c3.6-2.6,7.6-4.2,12.1-4.7c0.9-0.1,1.8-0.1,2.7-0.1
				c4.8,0,9.6,1.4,14.2,4.2c3.1,1.9,6,4.3,8.4,7.1c2.7,3,5,6.6,6.9,10.6c0.1,0.3,0.2,0.5,0.3,0.8c1.1-3.1,2.8-5.6,4.4-7.9
				c3.7-5.4,8.5-9.5,14.3-12.3c2.9-1.4,6.1-2.2,9.5-2.4c0.6,0,1.2-0.1,1.8-0.1c5.2,0,9.9,1.5,14.2,4.5c5.2,3.7,8.5,8.7,9.7,15
				c0.3,1.7,0.4,3.1,0.4,4.4c0.2,4.7-1.6,8.6-3.5,12.1c-1.4,2.5-3.3,5-5.8,7.4c-4.2,4.1-9.2,7.3-14.8,9.6c-0.6,0.2-1.2,0.4-1.8,0.4
				c-0.8,0-1.5-0.2-2.1-0.3c-0.2,0-0.4-0.1-0.5-0.1c-4.5-1-8.5-1.7-12.4-2.1c-1.9-0.2-3.9-0.3-5.8-0.4l-1-0.1
				c-1.7-0.1-3.6-0.2-5.8-0.2c-1.8,0-3.5,0-5.3,0.1h-0.4c-2.9-0.2-5.9,0.1-8.1,0.3c-4.8,0.5-9.6,1.4-14.4,2.6
				C43,100.7,42.8,100.8,42.6,100.8z M98.1,63.9c-2.6,0.1-4.8,0.7-6.7,1.8c-1.5,0.9-2.9,1.9-4.3,3.2c-1.5,1.3-3,2.8-4,4.8
				c-1.1,2.1-1.6,4.1-1.8,6.1c-0.2,3,0.9,4.5,3.8,5.1c0.6,0.1,1.2,0.2,1.9,0.2c1.1,0,2.3-0.2,3.5-0.3c3.7-0.5,6.7-1.7,9.1-3.7
				c4.1-3.5,5.6-7.5,4.4-12.3c-0.6-2.2-2.3-4.7-5.4-4.7C98.3,63.9,98.2,63.9,98.1,63.9z M37.4,73.4c1,4.2,3.3,7.2,7.2,9.2
				c3,1.5,6.2,2.3,9.5,2.3l0,0c0.8,0,1.6,0,2.4-0.1c2-0.2,3.7-1.9,3.8-3.8c0.1-2.1-0.4-4.3-1.5-6.7c-1.3-2.9-3.7-4.9-6-6.8
				c-3-2.4-6-3.5-9.3-3.5c-0.1,0-0.3,0-0.4,0c-1.7,0.1-3.1,0.8-4.2,2.2c-1.1,1.4-1.5,3.2-1.5,5.5V73.4L37.4,73.4z"/>
			<path class="st0" d="M40.9,49.1c4.8,0,9.2,1.4,13.3,4c3,1.8,5.7,4.1,8,6.7c2.7,3.1,4.9,6.5,6.6,10.2c0.2,0.4,0.3,0.8,0.4,1.2
				c0.2,0.7,0.8,1,1.4,1c0.7,0,1.3-0.3,1.5-1.1c0.9-2.9,2.6-5.5,4.3-8c3.5-5.1,8.1-9,13.7-11.7c2.8-1.3,5.7-2.1,8.8-2.3
				c0.6,0,1.1-0.1,1.7-0.1c4.8,0,9.2,1.4,13.2,4.1c4.9,3.4,7.9,8.1,9,13.9c0.3,1.4,0.4,2.7,0.3,4c0.2,4.2-1.4,7.8-3.3,11.3
				c-1.4,2.6-3.4,4.9-5.5,7c-4.1,4-8.9,7.1-14.3,9.2c-0.4,0.2-0.8,0.2-1.2,0.2c-0.8,0-1.5-0.3-2.3-0.4c-4.1-1-8.3-1.7-12.6-2.2
				c-2.3-0.2-4.6-0.4-6.9-0.5c-2-0.1-3.9-0.2-5.9-0.2c-1.9,0-3.8,0-5.7,0.1c-2.8,0.1-5.5,0.3-8.3,0.6c-5,0.5-9.9,1.4-14.7,2.7
				c-0.1,0-0.2,0-0.3,0c-0.3,0-0.6-0.1-0.9-0.2c-4.3-1.6-8.3-3.9-11.9-6.8c-5-4.1-9-9-10.9-15.4c-0.7-2.4-0.9-4.9-0.6-7.4
				c0.2-2.4,0.8-4.7,1.8-6.9c1.5-3.6,3.9-6.5,7-8.8c3.4-2.5,7.1-3.9,11.3-4.3C39.2,49.1,40.1,49.1,40.9,49.1 M87,86.7
				c1.2,0,2.5-0.2,3.7-0.3c3.7-0.5,7.1-1.7,10-4.1c4.4-3.7,6.4-8.3,4.9-14c-0.8-3.4-3.5-6.1-7.1-6.1c-0.1,0-0.3,0-0.4,0
				c-2.6,0.1-5.1,0.7-7.5,2c-1.7,1-3.2,2.1-4.6,3.4c-1.7,1.5-3.3,3.2-4.4,5.3c-1.1,2.1-1.8,4.4-2,6.7c-0.2,3.8,1.4,6.1,5.2,6.9
				C85.5,86.7,86.2,86.7,87,86.7 M54.1,86.7c0.8,0,1.7,0,2.6-0.1c2.9-0.3,5.2-2.7,5.3-5.5c0.1-2.6-0.6-5.1-1.6-7.5
				c-1.4-3.1-3.9-5.3-6.6-7.4c-3.1-2.4-6.4-3.9-10.3-3.9c-0.2,0-0.3,0-0.5,0c-2.3,0.1-4.1,1.1-5.5,2.9c-1.5,2-1.9,4.2-1.8,6.6
				c0,0.6,0,1.2,0,1.8c0,0.1,0,0.2,0,0.2c1.1,4.7,3.8,8.2,8.1,10.4C47,85.8,50.5,86.7,54.1,86.7 M40.9,45.6c-1,0-1.9,0.1-2.9,0.2
				c-4.8,0.5-9.1,2.2-13,5c-3.7,2.7-6.4,6.1-8.2,10.2c-1.1,2.5-1.8,5.1-2,7.9c-0.3,3.1,0,6,0.8,8.7c1.9,6.4,5.9,12,12,17.1
				c3.8,3.1,8.1,5.6,12.9,7.4h0.1c0.4,0.1,1.1,0.4,2,0.4c0.4,0,0.8,0,1.2-0.1c4.7-1.2,9.5-2.1,14.2-2.6c2.2-0.2,5.1-0.5,8-0.6h0.4
				c1.7,0,3.5-0.1,5.2-0.1c2.2,0,4,0.1,5.7,0.2l0.9,0.1c2,0.1,3.9,0.2,5.8,0.4c3.7,0.4,7.7,1.1,12.1,2.1c0.2,0,0.3,0.1,0.5,0.1
				c0.7,0.2,1.5,0.4,2.6,0.4c0.9,0,1.7-0.2,2.5-0.5c5.9-2.4,11.1-5.7,15.4-10c2.6-2.6,4.6-5.1,6.1-7.8c2-3.6,3.9-7.9,3.8-13
				c0.1-1.4-0.1-2.9-0.4-4.7c-1.3-6.8-4.8-12.2-10.4-16.1c-4.5-3.2-9.6-4.8-15.2-4.8c-0.6,0-1.3,0-1.9,0.1
				c-3.5,0.2-6.9,1.1-10.1,2.6c-6.1,2.9-11.2,7.2-15,12.9c-1,1.4-2,3-3,4.7c-1.7-3.1-3.6-5.9-5.8-8.4c-2.6-2.9-5.6-5.4-8.8-7.4
				C51.2,47.1,46.1,45.6,40.9,45.6L40.9,45.6z M87,83.2c-0.6,0-1.1,0-1.5-0.1c-1.7-0.4-2.5-0.9-2.4-3.3c0.1-1.8,0.6-3.5,1.6-5.4
				c0.9-1.7,2.2-3,3.6-4.2s2.7-2.2,4.1-3c1.6-1,3.5-1.5,5.8-1.5h0.1c0.1,0,0.2,0,0.2,0c2.1,0,3.4,1.8,3.7,3.4
				c1,4.1-0.2,7.4-3.8,10.5c-2.1,1.8-4.8,2.9-8.2,3.3C89.1,83.1,88,83.2,87,83.2L87,83.2z M39.1,73.2c0-0.3,0-0.7,0-1v-0.4v-0.1
				c0-1.9,0.3-3.3,1.1-4.4c0.8-1,1.6-1.5,2.8-1.5c0.1,0,0.3,0,0.4,0c2.9,0,5.4,1,8.2,3.2c2.2,1.7,4.4,3.6,5.5,6.1
				c1,2.1,1.4,4.1,1.3,5.9c0,1-1.1,2.1-2.2,2.2c-0.7,0.1-1.5,0.1-2.2,0.1c-3,0-6-0.7-8.7-2.1C42,79.3,40,76.8,39.1,73.2L39.1,73.2z"
				/>
		</g>
		<g>
			<path class="st1" d="M103.4,125.6c-7,0-14.1,0-21.1,0H38h-0.3c-0.2,0-0.5,0-0.7,0c-1.5-0.2-2.6-0.8-3.2-1.7
				c-0.7-1-0.8-2.1-0.5-3.7c0.5-2.4,1.9-4.2,3.1-5.7l0.2-0.2c0.8-1,1.6-2,2.1-3c0.4-0.9,1-1.4,1.9-1.6c1.2-0.3,2.3-0.6,3.5-0.8
				c2.3-0.6,4.8-1.2,7.2-1.6c2.5-0.5,5.1-0.9,8.4-1.3c3-0.4,6.1-0.5,10.2-0.5c1.8,0,3.7,0,5.5,0.1h0.9c3.2,0.1,6.5,0.5,9.3,0.9
				c3.9,0.6,8.1,1.5,13.5,2.8c0.7,0.2,1.4,0.4,2.1,0.5c0.3,0.1,1.4,0.4,1.9,1.5c0.5,1.2,1.3,2.2,2.2,3.3c0.4,0.5,0.9,1,1.2,1.6
				c1,1.4,1.7,3.1,2,5.2c0.3,1.7-0.7,3.3-2.4,3.9C105.2,125.5,104.4,125.6,103.4,125.6L103.4,125.6z"/>
			<path class="st0" d="M69.7,107.1c2.1,0,4.3,0,6.4,0.1c3,0.1,6.1,0.5,9.1,0.9c4.5,0.7,8.9,1.7,13.3,2.8c0.7,0.2,1.4,0.3,2,0.5
				c0.3,0.1,0.6,0.2,0.7,0.5c0.8,2,2.4,3.5,3.7,5.2c1,1.3,1.5,2.8,1.7,4.4c0.1,0.9-0.4,1.6-1.2,2c-0.7,0.2-1.3,0.4-2.1,0.4l0,0
				c-6.8,0-13.6,0-20.4,0c-4,0-8.1,0-12.1,0c-0.1,0-0.1,0-0.2,0c-0.8,0-1.7,0-2.5,0c-1.4,0-2.8,0-4.2,0c-8.6,0-17.2,0-25.9,0
				c-0.2,0-0.4,0-0.5,0c-0.2,0-0.3,0-0.5,0c-2-0.3-2.7-1.3-2.2-3.3c0.4-1.9,1.5-3.5,2.7-5c0.9-1.1,1.9-2.3,2.5-3.7
				c0.1-0.3,0.3-0.5,0.6-0.6c3.5-0.8,7.1-1.8,10.6-2.4c2.7-0.5,5.5-0.9,8.3-1.3C63.1,107.2,66.4,107.1,69.7,107.1 M69.7,103.6
				c-4.2,0-7.4,0.2-10.4,0.6c-3.3,0.4-6,0.8-8.5,1.3s-4.9,1.1-7.3,1.6c-1.2,0.3-2.3,0.6-3.5,0.8c-0.8,0.2-2.3,0.8-3.1,2.6
				c-0.4,0.8-1,1.7-1.8,2.6l-0.2,0.2c-1.4,1.6-2.8,3.7-3.4,6.4c-0.4,2-0.2,3.7,0.7,5c0.9,1.4,2.4,2.2,4.4,2.5c0.3,0,0.6,0.1,1,0.1
				c0.1,0,0.2,0,0.3,0h0.2H64h4.2h2.5h0.2H77h6.1c6.8,0,13.6,0,20.4,0c1.2,0,2.3-0.2,3.3-0.6c2.4-0.9,3.9-3.3,3.5-5.8
				c-0.4-2.3-1.1-4.3-2.4-5.9c-0.4-0.6-0.9-1.1-1.3-1.7c-0.8-1-1.6-1.9-1.9-2.8c-0.4-0.9-1.2-2.1-3-2.6c-0.7-0.2-1.4-0.4-2.1-0.5
				c-5.4-1.3-9.6-2.2-13.6-2.8c-2.9-0.4-6.2-0.9-9.6-1h-0.9C73.5,103.6,71.6,103.6,69.7,103.6L69.7,103.6z"/>
		</g>
		<g>
			<path class="st1" d="M70.8,66c-0.7,0-1.3-0.4-1.6-1c-0.9-1.8-1.8-3.5-2.8-5.1c-1.5-2.5-3.2-4.8-5.2-7c-1.8-2-2.3-4.4-1.5-7.2
				c1.4-5,5.9-8.4,11-8.4c0.3,0,0.6,0,1,0c3.3,0.3,6.1,1.9,8.2,4.6c1.5,2,2.3,4.1,2.3,6.4c0,2.3-1.1,3.9-2,4.9
				c-3,3.4-5.5,7.2-7.4,11.2c-0.1,0.1-0.4,0.7-0.4,0.7C72,65.7,71.4,66,70.8,66L70.8,66z"/>
			<path class="st0" d="M70.7,39c0.3,0,0.5,0,0.8,0c2.8,0.3,5.2,1.6,6.9,3.9c1.2,1.6,1.9,3.3,1.9,5.4c0,1.5-0.7,2.6-1.6,3.7
				c-3.1,3.5-5.7,7.4-7.7,11.6c-0.1,0.2-0.2,0.3-0.4,0.7c-0.8-1.9-1.7-3.6-2.7-5.3c-1.6-2.6-3.4-5-5.4-7.3c-1.5-1.7-1.7-3.5-1.1-5.6
				C62.6,42,66.5,39,70.7,39 M70.7,35.5L70.7,35.5c-5.8,0-11,4-12.7,9.7c-1,3.4-0.4,6.4,1.9,8.9c1.9,2.1,3.6,4.4,5,6.8
				c1,1.6,1.8,3.2,2.7,5c0.6,1.2,1.8,1.9,3.1,2l0,0c1.3,0,2.5-0.7,3.1-1.9l0.2-0.3c0.1-0.2,0.2-0.3,0.3-0.5
				c1.9-3.9,4.3-7.6,7.2-10.8c1.1-1.2,2.5-3.2,2.5-6.1c-0.1-2.6-0.9-5.1-2.6-7.4c-2.3-3.1-5.6-4.9-9.4-5.3
				C71.5,35.5,71.1,35.5,70.7,35.5L70.7,35.5z"/>
		</g>
		<g>
			<path class="st1" d="M82.8,38.2c-0.4,0-0.7-0.1-1-0.2c-1.9-0.7-3.8-1.4-5.7-2.1c0,0.3-0.2,0.7-0.4,0.9c0,0.1-0.1,0.1-0.1,0.2l0,0
				c-0.3,0.3-0.8,0.5-1.2,0.5c-0.1,0-0.1,0-0.2,0c-0.6,0-1.1-0.1-1.6-0.2c-0.5-0.1-1-0.2-1.5-0.2c-0.1,0-0.2,0-0.2,0
				c-0.2,0-0.4,0-0.6,0c-0.6,0-1.2,0.1-1.7,0.2c-0.2,0.1-0.5,0.1-0.9,0.1c-0.6,0-1.2-0.3-1.5-0.7c-0.2-0.3-0.4-0.6-0.4-0.9
				c-1.5,0.6-3.2,1.2-5.2,1.9c-0.7,0.3-1.1,0.4-1.7,0.4c-1,0-1.8-0.7-2-1.7c-0.1-0.4-0.1-0.7-0.1-1.3v-2.6c0-2.3,0-4.5,0-6.8
				c0-0.3,0-1.2,0.6-1.9c0.4-0.4,0.9-0.6,1.5-0.6c0.4,0,0.8,0.1,1.1,0.3c1.5,0.6,3,1.1,4.5,1.7l0.8,0.3c-0.2-0.5-0.4-1-0.5-1.5
				c-0.2-0.4-0.3-0.8-0.5-1.3l-0.4-1c-0.2-0.6-0.4-1.2-0.6-1.8c-0.1-0.3-0.5-1.3,0.1-2.2c0.3-0.4,0.9-0.9,2-0.9c1.8,0,3.7,0,5.5,0
				s3.6,0,5.4,0c1.1,0,1.7,0.5,2,0.9c0.6,0.9,0.3,1.9,0.1,2.2c-0.7,1.8-1.3,3.6-2,5.4c1.8-0.7,3.7-1.3,5.5-2c0.3-0.1,0.6-0.2,1-0.2
				c0.5,0,1,0.2,1.4,0.6c0.6,0.6,0.6,1.4,0.6,1.7c0,3.4,0,6.8,0,10.2c0,0.3,0,1.1-0.6,1.7C83.9,38,83.4,38.2,82.8,38.2z"/>
			<path class="st0" d="M65.3,18.7L65.3,18.7c1.8,0,3.6,0,5.4,0s3.7,0,5.5,0l0,0c0.6,0,0.7,0.3,0.5,0.8c-0.8,2.2-1.6,4.3-2.4,6.5
				c-0.2,0.5-0.4,1,0.1,1.4c0.2,0.2,0.5,0.3,0.8,0.3c0.2,0,0.5-0.1,0.7-0.2c2.2-0.8,4.4-1.6,6.6-2.4c0.2-0.1,0.3-0.1,0.4-0.1
				c0.2,0,0.3,0.2,0.2,0.5c0,3.4,0,6.8,0,10.2c0,0.4-0.1,0.6-0.3,0.6c-0.1,0-0.2,0-0.4-0.1c-2-0.8-4.1-1.5-6.1-2.3
				c-0.3-0.1-0.6-0.3-0.9-0.3c-0.1,0-0.2,0-0.4,0.1c-0.9,0.3-1,1-0.7,1.8c-1.1-0.1-2.1-0.4-3.2-0.4c-0.1,0-0.2,0-0.3,0
				c-0.9,0.1-1.8,0-2.8,0.3c-0.1,0-0.3,0.1-0.4,0.1c-0.2,0-0.3-0.1-0.2-0.6c0.1-0.7-0.5-1.3-1.2-1.3c-0.2,0-0.3,0-0.5,0.1
				c-2,0.7-3.9,1.4-5.8,2.2c-0.5,0.2-0.8,0.3-1,0.3c-0.3,0-0.3-0.3-0.3-1.2c0-3.1,0-6.3,0-9.4c0-0.5,0.1-0.7,0.3-0.7
				c0.1,0,0.3,0.1,0.5,0.1c2,0.8,3.9,1.5,5.9,2.2c0.2,0.1,0.5,0.2,0.7,0.2s0.3,0,0.4,0c0.9,0,1.2-0.6,0.9-1.6
				c-0.4-1.3-0.9-2.6-1.4-3.9c-0.3-0.9-0.7-1.9-1-2.8C64.6,19,64.7,18.7,65.3,18.7 M74.3,35.7L74.3,35.7L74.3,35.7L74.3,35.7
				 M65.3,15.2c-2,0-3,1.1-3.4,1.7c-0.5,0.8-1,2.1-0.3,3.8c0.2,0.6,0.4,1.1,0.6,1.7c0,0.1,0,0.1,0.1,0.2c-0.6-0.2-1.2-0.4-1.7-0.7
				c-0.4-0.2-1-0.4-1.8-0.4c-1,0-2,0.4-2.7,1.1c-0.8,0.8-1.2,1.8-1.1,3.1c0,2.3,0,4.6,0,6.8c0,0.8,0,1.7,0,2.5c0,0.6,0,1.1,0.1,1.7
				c0.4,1.8,1.9,3,3.7,3c0.8,0,1.5-0.2,2.2-0.5h0.1c1.4-0.5,2.6-1,3.8-1.4c0.7,0.8,1.7,1.2,2.8,1.2c0.6,0,1.1-0.1,1.4-0.2
				c0.3-0.1,0.8-0.1,1.3-0.1c0.2,0,0.5,0,0.7,0h0.1c0.3,0,0.8,0.1,1.2,0.1c0.5,0.1,1.1,0.2,1.7,0.2c0.1,0,0.2,0,0.3,0
				c0.9,0,1.8-0.4,2.5-1l0.1-0.1c1.4,0.5,2.9,1.1,4.3,1.6c0.4,0.1,0.9,0.3,1.6,0.3c1,0,2-0.4,2.7-1.1c0.5-0.5,1.1-1.5,1.1-3
				c0-3.4,0-6.9,0-10.2c0-1.2-0.4-2.2-1.1-2.9c-0.8-0.6-1.7-1-2.7-1c-0.7,0-1.2,0.2-1.6,0.3c-0.6,0.2-1.3,0.5-2,0.7
				c0.2-0.6,0.5-1.3,0.7-1.9c0.7-1.8,0.2-3.1-0.3-3.8c-0.4-0.6-1.5-1.7-3.4-1.7c-1.8,0-3.7,0-5.5,0C68.9,15.3,67.1,15.3,65.3,15.2
				L65.3,15.2L65.3,15.2z"/>
		</g>
		<g>
			<path class="st1" d="M39.2,109.6c-1.3,0-2-0.6-2.5-1.2c-1.3-1.7-1.2-3.1-0.8-4.1c0.6-1.6,2-2,2.9-2.3c4.6-1.4,9.4-2.5,14-3.2
				c2.1-0.3,4.3-0.6,6.4-0.8c3.8-0.3,7.1-0.5,10.6-0.5c0.4,0,0.8,0,1.2,0c0.6,0,1.2-0.1,2-0.1c1.5,0,3.1,0.1,4.7,0.2l1.3,0.1
				c4.4,0.2,8.9,0.8,13.5,1.7c3.4,0.7,6.8,1.6,9.7,2.4c0.2,0.1,0.5,0.1,0.7,0.2l0.2,0.1c2.1,0.7,3.1,2.5,2.5,4.6
				c-0.7,2.4-2.5,2.8-3.4,2.8c-0.4,0-0.8-0.1-1.3-0.2c-0.8-0.2-1.6-0.4-2.4-0.6c-1.4-0.3-2.7-0.7-4.1-1c-4-0.9-7.7-1.6-11.2-2
				c-3.2-0.4-6.3-0.6-9.5-0.7c-0.5,0-1,0-1.5-0.1c-0.6,0-1.2-0.1-1.8-0.1c-0.3,0-0.5,0-0.8,0c-1.2,0.1-2.4,0.1-3.7,0.2
				c-2,0.1-4.1,0.2-6.2,0.4c-5.7,0.6-11.6,1.8-19.3,3.8C40.2,109.5,39.8,109.6,39.2,109.6z"/>
			<path class="st0" d="M73.1,99.3c1.9,0,3.9,0.1,5.9,0.3c4.4,0.2,8.8,0.8,13.2,1.7c3.2,0.6,6.4,1.5,9.5,2.3
				c0.3,0.1,0.5,0.2,0.8,0.3c1.3,0.4,1.8,1.3,1.4,2.4c-0.3,1-0.9,1.5-1.8,1.5c-0.3,0-0.5,0-0.8-0.1c-2.2-0.5-4.3-1.1-6.5-1.6
				c-3.8-0.9-7.6-1.6-11.4-2c-3.2-0.4-6.4-0.6-9.6-0.7c-1.1,0-2.2-0.1-3.3-0.1c-0.3,0-0.6,0-0.9,0c-3.3,0.2-6.6,0.2-9.9,0.6
				c-6.6,0.7-13.1,2.2-19.5,3.8c-0.3,0.1-0.6,0.2-0.9,0.2c-0.4,0-0.8-0.1-1.1-0.5c-0.5-0.7-0.9-1.5-0.5-2.3c0.3-0.8,1.1-1,1.8-1.2
				c4.5-1.4,9.1-2.5,13.7-3.2c2.1-0.3,4.2-0.6,6.3-0.8c3.4-0.3,6.7-0.5,10.4-0.5c0.4,0,0.8,0,1.2,0C71.8,99.3,72.4,99.3,73.1,99.3
				 M73.1,95.8c-0.7,0-1.4,0-2,0.1c-0.4,0-0.8,0-1.1,0c-3.5,0-6.9,0.2-10.7,0.5c-2.2,0.2-4.4,0.5-6.6,0.8c-4.7,0.7-9.5,1.8-14.2,3.3
				c-0.9,0.3-3.1,0.9-4,3.3c-0.5,1.1-0.9,3.4,1,5.8c0.9,1.2,2.3,1.8,3.8,1.8c0.7,0,1.4-0.1,1.8-0.3c7.6-2,13.4-3.1,19-3.7
				c2-0.2,3.9-0.3,6-0.4c1.2-0.1,2.5-0.1,3.7-0.2c0.2,0,0.4,0,0.7,0c0.5,0,1.1,0,1.7,0.1c0.5,0,1,0.1,1.6,0.1
				c3.1,0.1,6.2,0.3,9.3,0.7c3.5,0.4,7.1,1.1,11,2c1.4,0.3,2.7,0.7,4.1,1c0.8,0.2,1.6,0.4,2.4,0.6c0.6,0.1,1.1,0.2,1.7,0.2
				c2.5,0,4.4-1.5,5.1-4c0.9-3-0.6-5.7-3.7-6.7l-0.2-0.1c-0.2-0.1-0.5-0.2-0.8-0.3c-2.9-0.8-6.3-1.7-9.8-2.4
				c-4.6-0.9-9.3-1.5-13.7-1.8c-0.4,0-0.9,0-1.3-0.1C76.3,95.9,74.6,95.8,73.1,95.8L73.1,95.8z"/>
		</g>
	</g>
</g>
</svg>
