<?xml version="1.0" encoding="utf-8"?>
<!-- Generator: Adobe Illustrator 26.1.0, SVG Export Plug-In . SVG Version: 6.00 Build 0)  -->
<svg version="1.1"
	 id="Слой_1" image-rendering="optimizeQuality" shape-rendering="geometricPrecision" text-rendering="geometricPrecision" xmlns:cc="http://creativecommons.org/ns#" xmlns:dc="http://purl.org/dc/elements/1.1/" xmlns:rdf="http://www.w3.org/1999/02/22-rdf-syntax-ns#"
	 xmlns="http://www.w3.org/2000/svg" xmlns:xlink="http://www.w3.org/1999/xlink" x="0px" y="0px" viewBox="0 0 141.7 141.7"
	 style="enable-background:new 0 0 141.7 141.7;" xml:space="preserve">
<style type="text/css">
	.st0{fill:#1E1E1E;}
	.st1{fill:#484544;}
</style>
<g>
	<path class="st0" d="M109.2,113.5c-1.3-2.4-3.3-4.1-5.5-5.7c-5.3-3.9-10-8.4-13.5-14.1c-2.1-3.4-3.7-7-4.4-10.9
		c-0.1-0.4,0-0.5,0.4-0.5c1.5,0,3-0.1,4.5-0.3c2.7-0.5,4.4-2,4.8-4.6c0.2-1.8-0.3-3.5-1.3-5c-1.4-2.2-3.5-3.6-5.7-4.7
		c-1.2-0.6-2.5-1-3.8-1.4c0.1-0.1,0.1-0.1,0.2-0.2c6.4-5.4,9.2-12.3,8-20.7c-1.6-11-11.7-19.8-24.3-18.7c-5.7,0.5-10.5,2.9-14.4,7
		c-7,7.3-8.1,18.8-2.5,27.2c1.4,2,3.1,3.8,5,5.4c-0.1,0-0.1,0.1,0.4,0c-0.2,0-0.3,0.1-0.5,0.1c-2.3,0.7-4.4,1.7-6.3,3.2
		c-1.9,1.5-3.3,3.3-3.8,5.7c-0.7,3.2,1,5.9,4.1,6.6c1.6,0.4,3.3,0.4,5,0.4c0.5-0.1,0.6,0.1,0.5,0.6c-0.4,1.8-0.9,3.5-1.6,5.2
		c-2.6,6.1-6.6,11.3-11.5,15.7c-2.1,1.9-4.4,3.5-6.6,5.3c-3.5,2.9-5.6,6.4-5.4,11.1c0.1,2.6,1.3,4.6,3.6,5.4
		c0.9,0.3,1.9,0.4,2.8,0.4c4.5-0.1,9-0.1,13.5-0.1c6.8,0,13.5,0,20.3,0c8.8,0,17.7,0,26.6,0c2.6,0,5.3,0.1,7.9,0
		c2.3-0.1,4.3-1.6,4.8-3.9C111.2,119,110.7,116.2,109.2,113.5z"/>
	<g>
		<path class="st0" d="M56.7,66.3c-1.9-1.6-3.6-3.4-5-5.4c-5.6-8.4-4.5-19.9,2.5-27.2c3.9-4.1,8.7-6.5,14.4-7
			c12.6-1.1,22.7,7.7,24.3,18.7c1.2,8.4-1.6,15.3-8,20.7c-0.1,0.1-0.1,0.1-0.2,0.2c1.3,0.4,2.6,0.8,3.8,1.4c2.2,1.1,4.3,2.5,5.7,4.7
			c1,1.5,1.5,3.2,1.3,5c-0.4,2.6-2.1,4.1-4.8,4.6c-1.5,0.2-3,0.3-4.5,0.3c-0.4,0-0.5,0.1-0.4,0.5c0.7,3.9,2.3,7.5,4.4,10.9
			c3.5,5.7,8.2,10.2,13.5,14.1c2.2,1.6,4.2,3.3,5.5,5.7c1.5,2.7,2,5.5,1.3,8.5c-0.5,2.3-2.5,3.8-4.8,3.9c-2.6,0.1-5.3,0-7.9,0
			c-8.9,0-17.8,0-26.6,0c-6.8,0-13.5,0-20.3,0c-4.5,0-9,0-13.5,0.1c-0.9,0-1.9-0.1-2.8-0.4c-2.3-0.8-3.5-2.8-3.6-5.4
			c-0.2-4.7,1.9-8.2,5.4-11.1c2.2-1.8,4.5-3.4,6.6-5.3c4.9-4.4,8.9-9.6,11.5-15.7c0.7-1.7,1.2-3.4,1.6-5.2c0.1-0.5,0-0.7-0.5-0.6
			c-1.7,0-3.4,0-5-0.4c-3.1-0.7-4.8-3.4-4.1-6.6c0.5-2.4,1.9-4.2,3.8-5.7c1.9-1.5,4-2.5,6.3-3.2c0.2,0,0.3-0.1,0.5-0.1
			C56.6,66.4,56.6,66.3,56.7,66.3z"/>
		<g>
			<path class="st1" d="M36.6,122.9c-0.2,0-0.5,0-0.7-0.1c-1.3-0.3-1.9-1.2-2-2.8c0-2.6,0.8-4.8,2.5-6.7c1.2-1.3,2.6-2.4,4-3.4
				c0.5-0.4,1-0.7,1.5-1.1c2.5-2,5-4.3,7.3-6.8c1.8-2,3.5-4.2,5-6.8c2.3-3.7,3.8-7.4,4.6-11.2c0-0.2,0-0.3,0.1-0.5
				c0-0.5,0.1-1.2,0.6-1.5c0.3-0.2,0.7-0.2,0.9-0.2s0.3,0,0.5,0c0.1,0,0.3,0,0.4,0h0.1c1-0.1,1.9-0.1,2.9-0.1c0.9,0,1.9,0,2.9-0.1
				c1.1-0.1,2.2-0.1,3.5-0.1c0.9,0,1.7,0,2.6,0c1,0,2.1,0.1,3.1,0.1c1.6,0.1,3.3,0.1,5,0.1c0.2,0,0.9,0,1,0.8
				c0.4,2.6,1.2,5.3,2.3,7.9c1.4,3.2,3.3,6.3,5.5,9.2c2,2.6,4.3,4.9,6.7,7c1.3,1.1,2.7,2.2,4.1,3.3c0.6,0.5,1.2,0.9,1.8,1.4
				c2.1,1.7,3.4,3.3,4.1,5.2c0.5,1.3,0.6,2.7,0.5,4.4c-0.1,1.2-1.1,2-2.4,2H70.7c0,0,0,0-0.1,0L36.6,122.9z"/>
			<path class="st0" d="M70.7,82c0.9,0,1.7,0,2.6,0c2.7,0.1,5.4,0.2,8.1,0.2c0.3,0,0.5,0,0.5,0.4c0.4,2.8,1.2,5.4,2.3,8
				c1.5,3.3,3.4,6.4,5.6,9.3c2,2.6,4.3,4.9,6.8,7.1c1.9,1.6,3.9,3.1,5.9,4.7c1.7,1.3,3.2,2.9,4,5c0.5,1.4,0.6,2.8,0.5,4.2
				c-0.1,1-0.9,1.6-1.9,1.6c-1.2,0-2.4,0-3.6,0c-1.8,0-3.5,0-5.3,0c-3.6,0-7.3,0-10.9,0c-4.8,0-9.7,0-14.5,0l0,0c-3,0-6,0-9,0
				c-8.2,0-16.4,0-24.6,0l0,0c-0.2,0-0.3,0-0.5,0s-0.4,0-0.6-0.1c-1.1-0.2-1.5-0.9-1.6-2.4c0-2.4,0.8-4.6,2.4-6.4
				c1.6-1.8,3.6-3,5.4-4.5c2.6-2.1,5.1-4.4,7.3-6.9c1.9-2.1,3.6-4.4,5.1-6.9c2.2-3.5,3.8-7.3,4.6-11.4c0.1-0.6,0-1.4,0.4-1.7
				c0.2-0.1,0.4-0.1,0.6-0.1c0.3,0,0.6,0.1,0.9,0.1c0.1,0,0.1,0,0.2,0c1.9-0.1,3.8,0,5.7-0.2C68.4,82.1,69.5,82,70.7,82 M70.7,81
				c-1.3,0-2.5,0-3.6,0.1c-0.9,0.1-1.9,0.1-2.8,0.1c-1,0-1.9,0-2.9,0.1h-0.1c-0.1,0-0.3,0-0.4,0c-0.2,0-0.4,0-0.5,0
				c-0.3,0-0.7,0-1.2,0.3c-0.7,0.5-0.8,1.3-0.8,1.9c0,0.2,0,0.3,0,0.4c-0.8,3.8-2.3,7.4-4.5,11.1c-1.5,2.5-3.2,4.7-5,6.7
				c-2.3,2.5-4.7,4.8-7.2,6.7c-0.5,0.4-1,0.7-1.4,1.1c-1.4,1.1-2.9,2.1-4.1,3.5c-1.8,2-2.7,4.4-2.7,7.1c0,0.7,0,2.8,2.4,3.3
				c0.3,0.1,0.6,0.1,0.8,0.1H37h0.2h24.6h4.5h4.5h0.1h7.2h7.3h10.9h2.6h2.7c1.2,0,2.4,0,3.6,0c1.6,0,2.8-1,2.9-2.5
				c0.2-1.7,0-3.2-0.5-4.6c-0.7-2-2.1-3.7-4.3-5.4c-0.6-0.5-1.2-0.9-1.8-1.4c-1.4-1.1-2.8-2.1-4.1-3.3c-2.4-2.1-4.6-4.4-6.6-6.9
				c-2.2-2.8-4.1-5.9-5.5-9.1c-1.2-2.6-1.9-5.1-2.3-7.7c-0.1-0.5-0.3-1.2-1.5-1.2c-1.7,0-3.3-0.1-5-0.1c-1,0-2-0.1-3.1-0.1
				C72.5,81,71.6,81,70.7,81L70.7,81z"/>
		</g>
		<g>
			<path class="st1" d="M70.4,67.9c-4.5-0.1-8.5-1.5-11.8-4.2c-3.4-2.8-5.7-6.2-6.7-10.3c-0.4-1.6-0.6-3.2-0.6-4.8
				c0.1-4.2,1.5-8,4-11.3c3.1-4,7.3-6.5,12.5-7.4c0.6-0.1,1.5-0.2,2.1-0.2c0.2,0,0.3,0,0.5,0c4.9,0.1,9.1,1.5,12.6,4.4
				c3.8,3.1,6.1,7.1,6.8,11.9c0.6,3.7,0.1,7.3-1.5,10.7c-1.1,2.4-2.7,4.4-4.5,6.1c-3,2.6-6.1,4.2-9.5,4.7c-1.2,0.2-2.4,0.4-3.6,0.4
				H70.4z"/>
			<path class="st0" d="M69.9,30.2c0.1,0,0.3,0,0.4,0c4.9,0.1,8.9,1.5,12.4,4.3c3.7,3,5.9,6.9,6.7,11.6c0.6,3.6,0.1,7.1-1.5,10.4
				c-1.1,2.3-2.5,4.3-4.4,5.9c-2.7,2.4-5.7,4-9.3,4.6c-1.2,0.2-2.3,0.3-3.5,0.3c-0.1,0-0.2,0-0.3,0c-4.3-0.1-8.1-1.3-11.5-4.1
				c-3.3-2.6-5.5-6-6.6-10.1c-0.4-1.5-0.6-3.1-0.6-4.6c0.1-4.1,1.4-7.8,3.9-11c3.1-4,7.2-6.3,12.2-7.2
				C68.6,30.3,69.4,30.2,69.9,30.2 M69.9,29.2L69.9,29.2c-0.7,0-1.6,0.1-2.2,0.2c-5.4,0.9-9.7,3.4-12.9,7.6c-2.6,3.4-4,7.2-4.1,11.6
				c0,1.6,0.2,3.2,0.6,4.9c1.1,4.2,3.4,7.8,6.9,10.6c3.4,2.7,7.4,4.2,12.1,4.3c0.1,0,0.2,0,0.3,0c1.2,0,2.4-0.2,3.6-0.4
				c3.6-0.5,6.8-2.1,9.8-4.8c1.9-1.7,3.4-3.8,4.6-6.3c1.6-3.5,2.2-7.2,1.6-11c-0.8-4.9-3.1-9-7-12.2c-3.6-2.9-7.8-4.4-12.9-4.5
				C70.2,29.2,70.1,29.2,69.9,29.2L69.9,29.2z"/>
		</g>
		<g>
			<path class="st1" d="M81.2,79.2c-0.6,0-1.1,0-1.7,0c-3.1-0.2-6-0.3-8.8-0.3c-1.4,0-2.8,0-4.1,0.1c-4.3,0.1-8.3,0.2-12.1,0.2h-1
				c-0.9,0-1.8-0.1-2.9-0.4c-0.8-0.2-1.4-0.9-1.4-1.8c-0.1-1.3,0.3-2.4,1.4-3.6c1.8-1.9,4.2-3.2,7.5-4.1c0.7-0.2,1.4-0.3,2.2-0.3
				c1.6,0,3.1,0.4,4.6,0.8c1.4,0.4,2.8,0.5,4.1,0.6c0.6,0.1,1.2,0.1,1.8,0.1c3,0,5.8-0.7,8-1.3c0.6-0.2,1.3-0.3,2-0.3
				c0.6,0,1.2,0.1,1.9,0.2c2.4,0.4,4.6,1.4,6.5,2.7c1.6,1.1,2.6,2.4,3,3.9c0.2,0.8,0.2,1.6-0.2,2.2c-0.3,0.5-0.9,0.9-1.7,1
				c-0.9,0.1-1.9,0.3-2.9,0.3h-0.3c-0.4,0-0.8,0-1.2,0H84c0,0,0,0-0.1,0c-0.4,0-0.9,0-1.3,0C82.1,79.2,81.7,79.2,81.2,79.2z"/>
			<path class="st0" d="M80.7,69.5c0.6,0,1.2,0.1,1.8,0.2c2.3,0.4,4.4,1.3,6.3,2.6c1.3,0.9,2.3,2.1,2.8,3.6c0.3,1,0.1,2.3-1.5,2.5
				c-0.9,0.1-1.9,0.3-2.8,0.3c-0.1,0-0.2,0-0.3,0c-0.4,0-0.8,0-1.2,0c-0.6,0-1.2,0-1.9,0l0,0c-0.9,0-1.8,0-2.8,0c-0.5,0-1.1,0-1.6,0
				c-2.9-0.2-5.9-0.3-8.8-0.3c-1.4,0-2.8,0-4.1,0.1c-4,0.1-8.1,0.2-12.1,0.2c-0.3,0-0.7,0-1,0c-1,0-1.9-0.2-2.8-0.4
				c-0.6-0.2-1-0.7-1.1-1.4c-0.1-1.3,0.5-2.3,1.3-3.2c2-2.2,4.5-3.2,7.3-3.9c0.7-0.2,1.4-0.2,2.1-0.2c1.5,0,3,0.4,4.4,0.8
				c1.4,0.4,2.8,0.5,4.2,0.6c0.6,0.1,1.2,0.1,1.8,0.1c2.8,0,5.5-0.6,8.1-1.3C79.4,69.5,80.1,69.5,80.7,69.5 M80.7,68.5
				c-0.8,0-1.5,0.1-2.2,0.3c-2.1,0.6-5,1.2-7.9,1.2c-0.6,0-1.2,0-1.7-0.1c-1.3-0.1-2.7-0.2-4-0.6c-1.5-0.4-3-0.8-4.7-0.8
				c-0.8,0-1.6,0.1-2.3,0.3c-2.2,0.5-5.4,1.6-7.8,4.2c-1.2,1.3-1.7,2.6-1.5,4c0.1,1.1,0.8,2,1.8,2.3c1.2,0.3,2.1,0.4,3.1,0.4h1
				c3.9,0,7.8-0.1,12.2-0.2c1.3,0,2.7-0.1,4.1-0.1c2.8,0,5.6,0.1,8.7,0.3c0.5,0,1,0,1.7,0c0.5,0,0.9,0,1.4,0c0.4,0,0.9,0,1.3,0H84
				c0.3,0,0.6,0,0.9,0s0.6,0,0.9,0c0.4,0,0.8,0,1.2,0c0.1,0,0.2,0,0.3,0c1.1,0,2.1-0.1,3-0.3c1.2-0.2,1.8-0.8,2.1-1.2
				c0.4-0.7,0.5-1.6,0.2-2.6c-0.5-1.6-1.5-3-3.2-4.2c-1.9-1.4-4.2-2.3-6.7-2.8C82,68.5,81.4,68.5,80.7,68.5L80.7,68.5z"/>
		</g>
	</g>
</g>
</svg>
