<?xml version="1.0" encoding="utf-8"?>
<!-- Generator: Adobe Illustrator 26.1.0, SVG Export Plug-In . SVG Version: 6.00 Build 0)  -->
<svg version="1.1"
	 id="Слой_1" image-rendering="optimizeQuality" shape-rendering="geometricPrecision" text-rendering="geometricPrecision" xmlns:cc="http://creativecommons.org/ns#" xmlns:dc="http://purl.org/dc/elements/1.1/" xmlns:rdf="http://www.w3.org/1999/02/22-rdf-syntax-ns#"
	 xmlns="http://www.w3.org/2000/svg" xmlns:xlink="http://www.w3.org/1999/xlink" x="0px" y="0px" viewBox="0 0 141.7 141.7"
	 style="enable-background:new 0 0 141.7 141.7;" xml:space="preserve">
<style type="text/css">
	.st0{fill:#1E1E1E;}
	.st1{fill:#484544;}
	.st2{fill:#282828;}
</style>
<g>
	<path class="st0" d="M113.7,110.3c-0.8-0.8-1.6-1.5-2.4-2.3s-1.4-1.6-1.4-2.7c-0.2-3.1-1.9-5.1-5-5.6c-0.3,0-0.4-0.1-0.5-0.5
		c-0.1-1.1-0.2-2.1-0.4-3.2c-0.6-4.9-1.3-9.8-1.9-14.6c-0.6-5.2-1.2-10.3-1.8-15.5c-0.3-2.6-0.6-5.2-1-7.8c-0.1-0.5,0-0.7,0.5-1
		c2.5-1.6,4.9-3.3,6.5-5.8c0.1-0.1,0.2-0.2,0.4-0.3c2.2-1.2,2.9-3.1,3.1-5.2c0.5-6,1.2-12.1,2.1-18.1c0.6-3.8-1.2-6.4-5.2-7.3
		c-3.1-0.7-6.3-1.1-9.4-1.3c-2.6-0.2-4.6,1-5.7,3.2c-0.2,0.4-0.4,0.9-0.6,1.4c-0.7,1.9-1.2,3.9-1.7,5.9c-0.1,0.5-0.4,0.7-1,0.6
		c-0.7-0.1-1.5-0.1-2.2-0.2c-1.2-0.1-1.3-0.1-1.3-1.2c0-1.9,0-3.7-0.1-5.6c-0.2-3.5-2.3-5.7-6-5.9c-5.3-0.2-10.7-0.3-16.1,0
		c-3.5,0.2-5.6,2.4-5.8,5.7c-0.1,1.7-0.1,3.4-0.1,5.2c0,1.7,0,1.7-1.8,1.9c-0.2,0-0.3,0-0.5,0c-1.9,0.2-1.8,0.2-2.3-1.5
		c-0.6-2.2-1-4.4-2.1-6.4c-1.1-2.1-2.9-3.3-5.5-3.1c-3.4,0.3-6.9,0.7-10.2,1.5c-3.2,0.8-5,3.4-4.6,6.4c0.9,6.4,1.6,12.9,2.2,19.3
		c0.1,1.5,0.6,2.9,1.9,4c0.8,0.7,1.6,1.5,2.3,2.3c1.3,1.5,2.8,2.9,4.6,4c1.3,0.7,1.7,1.5,1.5,2.9c-0.8,5.7-1.4,11.5-2.1,17.3
		c-0.9,7.5-1.9,15-2.8,22.5c-0.1,0.5-0.3,0.7-0.7,0.8c-2.7,0.6-4.4,2.3-4.6,4.8c-0.1,1.8-1.1,3.2-2.5,4.4c-3.9,3.2-5.5,7.1-5.1,11.9
		c0.2,2.9,1.7,5,4.4,5.8c1.5,0.4,2.7,0.4,3.1,0.4c4.7-0.2,20.9-0.2,37.4-0.1c0,0,0,0,0.1,0c6.7,0,31.3,0.4,41.2,0
		c1.1,0,3.5-0.1,5-1.8c0.7-0.8,1.3-1.8,1.5-3C118,117.7,117,113.6,113.7,110.3z"/>
	<g>
		<g>
			<path class="st1" d="M99.8,100c-5.8,0-11.6,0-17.3,0h-40c-0.7,0-1.1,0-1.4-0.3c-0.3-0.3-0.2-0.7-0.1-1.3c0.3-2.2,0.6-4.4,0.8-6.5
				c0.4-3.1,0.8-6.1,1.2-9.2c0.5-4.4,1.1-8.8,1.6-13.2l0.3-2.3c0.3-2.6,0.6-5.2,0.9-7.8c0.1-0.8,0.6-0.9,0.9-0.9c0.1,0,0.2,0,0.3,0
				c1.2,0.2,2.5,0.4,4.2,0.4c1,0,1.9,0,2.9-0.1c1,0,2-0.1,2.9-0.1h0.4c1.1,0,2.1,0,3.2,0c0.7,0,1.3,0,2,0c2.5,0,5.1-0.1,7.6-0.1
				c4.8,0,9.7,0.1,14.2,0.1c1.7,0,3.4,0.1,5.1,0.1l2.3,0.1h0.4c1,0,1.9-0.1,2.7-0.3c0.2,0,0.3-0.1,0.5-0.1c0.6,0,0.9,0.4,1,1.1
				c0.3,2.7,0.6,5.4,0.9,8.1l0.3,2.5c0.5,4.3,1,8.7,1.6,13c0.6,5.2,1.3,10.3,2,15.5c0,0.3,0.1,0.7-0.2,1
				C100.6,99.9,100.2,100,99.8,100L99.8,100z"/>
			<path class="st0" d="M46.6,58.8c0.1,0,0.1,0,0.2,0c1.4,0.3,2.8,0.4,4.3,0.4c1.9,0,3.9-0.2,5.8-0.2H57c0.1,0,0.2,0,0.2,0
				c1.7,0,3.5-0.1,5.2-0.1c2.5,0,5.1-0.1,7.6-0.1c4.7,0,9.5,0.1,14.2,0.1c2.5,0,4.9,0.1,7.4,0.2c0.1,0,0.3,0,0.4,0
				c0.9,0,1.9-0.1,2.8-0.3c0.1,0,0.3-0.1,0.4-0.1c0.3,0,0.5,0.2,0.5,0.6c0.3,2.7,0.6,5.4,0.9,8.1c0.6,5.2,1.2,10.4,1.9,15.6
				c0.6,5.2,1.3,10.3,2,15.5c0.1,0.6-0.1,0.8-0.8,0.8l0,0c-5.8,0-11.5,0-17.3,0c-3.9,0-7.7,0-11.6,0c-4.6,0-9.2,0-13.7,0
				c-4.9,0-9.8,0-14.7,0c-1.2,0-1.2,0-1.1-1c0.7-5.2,1.4-10.5,2-15.7s1.2-10.4,1.9-15.6c0.3-2.6,0.6-5.2,0.9-7.8
				C46.2,59,46.3,58.8,46.6,58.8 M46.6,57.8c-0.6,0-1.3,0.4-1.4,1.4c-0.3,2.6-0.6,5.2-0.9,7.8L44,69.2c-0.5,4.4-1,8.9-1.6,13.3
				c-0.4,3-0.8,6.1-1.2,9.1c-0.3,2.2-0.6,4.4-0.8,6.6c-0.1,0.6-0.2,1.2,0.3,1.7c0.4,0.5,1,0.5,1.8,0.5h14.7h9.2H71h5.8h5.8
				c5.8,0,11.5,0,17.3,0c0.5,0,1.1-0.1,1.5-0.5c0.5-0.5,0.4-1.2,0.3-1.4c-0.6-4.6-1.3-10-2-15.4c-0.5-4.4-1.1-8.8-1.6-13.1l-0.3-2.5
				c-0.4-3-0.7-5.7-0.9-8.1c-0.2-1.4-1.1-1.5-1.5-1.5c-0.2,0-0.4,0-0.6,0.1c-0.7,0.2-1.6,0.3-2.6,0.3c-0.1,0-0.3,0-0.4,0
				c-0.8,0-1.5,0-2.3-0.1c-1.7,0-3.4-0.1-5.1-0.1C79.8,58,75,58,70.2,58c-2.7,0-5.2,0-7.6,0.1c-0.7,0-1.3,0-2,0c-1,0-2.1,0-3.2,0
				h-0.2h-0.1c-1,0-2,0-3,0.1c-0.9,0-1.9,0.1-2.9,0.1c-1.6,0-2.9-0.1-4.1-0.3C46.8,57.9,46.7,57.8,46.6,57.8L46.6,57.8z"/>
		</g>
		<g>
			<path class="st1" d="M39.1,48.6c-2.6,0-3.5-0.8-3.7-3.1l-0.1-0.8c-0.4-3.9-0.8-8-1.3-12c-0.3-1.9-0.5-3.8-0.8-5.8
				s0.5-3.2,2.6-3.6c2.7-0.6,5.5-0.9,8.2-1.2l0.5-0.1c0.2,0,0.3,0,0.5,0c1.4,0,1.9,0.9,2.3,1.7c0.7,1.6,1.1,3.3,1.5,4.9
				c0.1,0.5,0.3,1,0.4,1.5c0.7,2.6,1.3,3.1,3.9,3.1h0.4c1,0,2.1-0.1,3.2-0.2c0.5,0,1.1-0.1,1.6-0.1c0.7,0,1.2-0.4,1.5-1.1
				c0.4-1.1,0.5-2.2,0.5-3.4v-0.5c0-0.8,0-1.7,0-2.5c0-0.7,0-1.3,0-2c0.1-2,1-2.9,3-3c1.7-0.1,3.6-0.1,5.9-0.1c1.2,0,2.4,0,3.6,0
				s2.4,0,3.6,0h0.2c0.8,0,1.7,0,2.5,0.1c1.2,0.1,2,0.8,2.3,2c0.1,0.6,0.2,1.1,0.2,1.6s0,1,0,1.6c0,1.5,0,3.1,0.2,4.6
				c0.1,0.6,0.2,1.3,0.6,1.9c0.2,0.4,0.4,0.6,0.7,0.7l0.7,0.1c1.5,0.2,3,0.4,4.5,0.4c0.7,0,1.3,0,1.8-0.1c1.3-0.2,2-0.8,2.3-1.9
				c0.2-0.7,0.4-1.4,0.5-2c0.4-1.5,0.8-3.1,1.4-4.6c0.2-0.5,0.4-0.9,0.6-1.3c0.4-0.7,1.1-1.2,1.9-1.2c0.1,0,0.2,0,0.2,0
				c3.4,0.3,6.5,0.7,9.5,1.4c1.6,0.4,2.4,1.5,2.2,3.2c-0.2,1.6-0.4,3.2-0.6,4.8c-0.3,2-0.5,3.9-0.7,5.9c-0.3,2.7-0.6,5.4-0.8,8.1
				c-0.2,2.4-1.2,3.2-3.7,3.2H49.8H39.1V48.6z"/>
			<path class="st0" d="M69.2,20.6c2.4,0,4.8,0,7.2,0c0.1,0,0.1,0,0.2,0l0,0c0.8,0,1.6,0,2.4,0.1c1,0.1,1.6,0.7,1.8,1.6
				c0.1,0.5,0.1,1,0.1,1.5c0,2.1-0.1,4.2,0.2,6.2c0.1,0.7,0.2,1.5,0.6,2.1c0.2,0.4,0.5,0.8,1.1,0.9c1.7,0.2,3.5,0.5,5.3,0.5
				c0.6,0,1.3,0,1.9-0.1c1.4-0.2,2.4-0.9,2.8-2.3c0.6-2.2,1.1-4.5,1.9-6.6c0.1-0.4,0.3-0.8,0.5-1.2c0.3-0.6,0.8-0.9,1.4-0.9
				c0.1,0,0.1,0,0.2,0c3.2,0.3,6.3,0.6,9.4,1.4c1.4,0.4,2,1.2,1.8,2.6c-0.4,3.6-0.9,7.1-1.3,10.7c-0.3,2.7-0.6,5.4-0.8,8.2
				c-0.2,2.1-0.9,2.8-3.2,2.8c-5,0-10.1,0-15.1,0c-5.6,0-11.2,0-16.7,0c-5.6,0-11.1,0-16.7,0c-5.1,0-10.1,0-15.2,0
				c-2.3,0-3-0.5-3.2-2.7c-0.4-4.3-0.8-8.5-1.4-12.8c-0.3-1.9-0.5-3.9-0.8-5.8c-0.3-1.7,0.4-2.6,2.2-3.1c2.8-0.7,5.8-1,8.7-1.3
				c0.2,0,0.3,0,0.4,0c0.9,0,1.4,0.4,1.8,1.4c0.9,2,1.3,4.2,1.9,6.3c0.7,2.7,1.5,3.4,4.4,3.4c0.1,0,0.3,0,0.4,0
				c1.6,0,3.2-0.2,4.8-0.3c1-0.1,1.6-0.6,1.9-1.4c0.5-1.3,0.5-2.7,0.6-4c0.1-1.5,0-3,0.1-4.5c0-1.7,0.7-2.4,2.5-2.5
				C65.3,20.6,67.3,20.6,69.2,20.6 M69.2,19.6c-2.3,0-4.2,0-5.9,0.1c-2.3,0.1-3.4,1.2-3.5,3.5c0,0.7,0,1.4,0,2c0,0.8,0,1.6,0,2.5
				v0.5c0,1.1-0.1,2.2-0.5,3.2c-0.3,0.7-0.6,0.8-1.1,0.8s-1.1,0.1-1.6,0.1c-1,0.1-2.1,0.2-3.1,0.2c-0.1,0-0.3,0-0.4,0
				c-2.3,0-2.8-0.4-3.4-2.7c-0.1-0.5-0.3-1-0.4-1.5c-0.4-1.6-0.9-3.3-1.5-4.9c-0.4-0.9-1.1-2-2.7-2c-0.2,0-0.4,0-0.6,0L44,21.5
				c-2.7,0.3-5.5,0.6-8.3,1.2c-2.3,0.5-3.3,1.9-2.9,4.2c0.3,1.9,0.5,3.8,0.8,5.8c0.5,4,0.9,8,1.3,12l0.1,0.8
				c0.3,2.7,1.4,3.6,4.2,3.6h15.2h8.3H71h8.4h8.4h15.1c2.8,0,4-1,4.2-3.7s0.5-5.4,0.8-8.1c0.2-2,0.5-3.9,0.7-5.9
				c0.2-1.6,0.4-3.2,0.6-4.8c0.2-1.9-0.7-3.2-2.6-3.7c-3.1-0.8-6.1-1.1-9.6-1.4c-0.1,0-0.2,0-0.3,0c-1,0-1.8,0.5-2.3,1.4
				c-0.2,0.4-0.4,0.9-0.6,1.3c-0.6,1.6-1,3.1-1.4,4.7c-0.2,0.7-0.4,1.4-0.5,2c-0.3,1-0.8,1.4-1.9,1.5c-0.6,0.1-1.1,0.1-1.8,0.1
				c-1.5,0-3-0.2-4.5-0.4l-0.6,0c-0.1,0-0.3-0.3-0.3-0.4c-0.3-0.5-0.4-1.1-0.5-1.7c-0.2-1.6-0.2-3-0.2-4.6c0-0.5,0-1,0-1.5
				s0-1.1-0.2-1.7c-0.4-1.4-1.3-2.2-2.7-2.3c-0.8-0.1-1.7-0.1-2.5-0.1h-0.2c-1.2,0-2.4,0-3.6,0C71.6,19.6,70.4,19.6,69.2,19.6
				L69.2,19.6z"/>
		</g>
		<path class="st2" d="M69.2,20.6c2.4,0,4.8,0,7.2,0c0.1,0,0.1,0,0.2,0l0,0c0.8,0,1.6,0,2.4,0.1c1,0.1,1.6,0.7,1.8,1.6
			c0.1,0.5,0.1,1,0.1,1.5c0,2.1-0.1,4.2,0.2,6.2c0.1,0.7,0.2,1.5,0.6,2.1c0.2,0.4,0.5,0.8,1.1,0.9c1.7,0.2,3.5,0.5,5.3,0.5
			c0.6,0,1.3,0,1.9-0.1c1.4-0.2,2.4-0.9,2.8-2.3c0.6-2.2,1.1-4.5,1.9-6.6c0.1-0.4,0.3-0.8,0.5-1.2c0.3-0.6,0.8-0.9,1.4-0.9
			c0.1,0,0.1,0,0.2,0c3.2,0.3,6.3,0.6,9.4,1.4c1.4,0.4,2,1.2,1.8,2.6c-0.4,3.6-0.9,7.1-1.3,10.7c-0.3,2.7-0.6,5.4-0.8,8.2
			c-0.2,2.1-0.9,2.8-3.2,2.8c-5.3,0-10.6,0-15.9,0s-10.6,0-15.9,0c-6.1,0-12.1,0-18.2,0c-4.6,0-9.1,0-13.7,0c-2.3,0-3-0.5-3.2-2.7
			c-0.4-4.3-0.8-8.5-1.4-12.8c-0.3-1.9-0.5-3.9-0.8-5.8c-0.3-1.7,0.4-2.6,2.2-3.1c2.8-0.7,5.8-1,8.7-1.3c0.2,0,0.3,0,0.4,0
			c0.9,0,1.4,0.4,1.8,1.4c0.9,2,1.3,4.2,1.9,6.3c0.7,2.7,1.5,3.4,4.4,3.4c0.1,0,0.3,0,0.4,0c1.6,0,3.2-0.2,4.8-0.3
			c1-0.1,1.6-0.6,1.9-1.4c0.5-1.3,0.5-2.7,0.6-4c0.1-1.5,0-3,0.1-4.5c0-1.7,0.7-2.4,2.5-2.5C65.3,20.6,67.3,20.6,69.2,20.6
			 M69.2,18.6c-2.3,0-4.2,0-6,0.1c-2,0.1-4.4,0.9-4.5,4.4c0,0.7,0,1.4,0,2c0,0.8,0,1.6,0,2.4V28c0,1.1-0.1,2.1-0.4,2.9
			c0,0.1-0.1,0.2-0.1,0.2l0,0c-0.6,0-1.1,0.1-1.7,0.1c-1.1,0.1-2.1,0.2-3.1,0.2c-0.1,0-0.2,0-0.4,0c-1.8,0-1.8,0-2.4-2
			c-0.1-0.5-0.3-1-0.4-1.5c-0.4-1.7-0.9-3.4-1.6-5c-0.3-0.7-1.1-2.6-3.7-2.6c-0.2,0-0.4,0-0.7,0l-0.5,0.1c-2.8,0.3-5.6,0.6-8.4,1.3
			c-2.8,0.6-4.1,2.5-3.7,5.2c0.3,1.9,0.5,3.8,0.8,5.7c0.5,4,0.9,8,1.3,11.9l0.1,0.8c0.3,3.4,1.9,4.7,5.3,4.7h13.7h9.1H71h8h8h15.9
			c3.4,0,5-1.4,5.3-4.6c0.2-2.7,0.5-5.4,0.8-8.1c0.2-1.9,0.5-3.9,0.7-5.9c0.2-1.6,0.4-3.2,0.6-4.8c0.3-2.4-1-4.1-3.3-4.7
			c-3.1-0.8-6.3-1.1-9.7-1.4c-0.1,0-0.3,0-0.4,0c-1.4,0-2.6,0.7-3.3,2c-0.3,0.5-0.5,1-0.7,1.5c-0.6,1.6-1,3.2-1.4,4.8
			c-0.2,0.7-0.4,1.3-0.5,2c-0.2,0.6-0.4,0.8-1,0.8c-0.5,0.1-1,0.1-1.6,0.1c-1.4,0-2.8-0.2-4.3-0.4h-0.2l0,0
			c-0.2-0.3-0.3-0.7-0.4-1.3c-0.2-1.4-0.2-2.9-0.2-4.5c0-0.5,0-1,0-1.6s0-1.2-0.2-1.9c-0.5-1.8-1.8-2.9-3.6-3.1
			c-0.9-0.1-1.8-0.1-2.7-0.1h-0.2c-1.2,0-2.4,0-3.6,0C71.7,18.7,70.4,18.6,69.2,18.6L69.2,18.6z"/>
		<g>
			<path class="st1" d="M109.8,123.9c-0.3,0-0.6,0-0.9,0s-0.6,0-0.9,0c-12.3,0-24.5,0-36.8-0.1c-4.9,0-9.9,0-14.8,0
				c-4.3,0-8.6,0-12.9,0c-2.5,0-5,0-7.5,0.1h-4.3c-0.3,0-0.6,0-0.9,0c-1.9-0.2-2.8-1.1-3-2.9c-0.4-3.9,0.9-7.1,3.8-9.5
				c1.9-1.6,3-3.1,3.5-4.8c0.1-0.5,0.2-1,0.3-1.7c0.1-1.4,0.9-2.2,2.4-2.3c0.5,0,1-0.1,1.5-0.1c0,0,3.3,0,5.6,0c4.5,0,11,0,16.4,0
				c4.5,0,7.4,0,8.5,0c0.1,0,0.5,0,1.1,0H72h29.6c0.5,0,1,0,1.4,0c0.3,0,0.5,0,0.8,0c1.5,0,2.5,0.9,2.5,2.2c0.1,2.4,1.3,4.4,3.9,6.7
				c3,2.5,4.2,5.8,3.5,9.7c-0.2,1.4-1,2.2-2.6,2.4C110.9,123.8,110.4,123.9,109.8,123.9z"/>
			<path class="st0" d="M61.3,103.1c4,0,7.3,0,8.5,0c0.1,0,0.5,0,1.1,0c0.1,0,0.2,0,0.3,0c0.4,0,0.7,0,0.8,0c4.3,0,8.6,0,12.9,0
				c5.5,0,11.1,0,16.6,0c0.7,0,1.5,0,2.2,0.1c1.2,0,2,0.6,2,1.7c0.1,3,1.9,5.1,4.1,7.1c3,2.5,3.9,5.7,3.4,9.3
				c-0.2,1.3-0.8,1.8-2.2,2c-0.5,0.1-1,0.1-1.4,0.1c-0.6,0-1.2,0-1.8,0c-12.3,0-24.5,0-36.8-0.1c-4.9,0-9.7,0-14.6,0
				c-4.4,0-8.7,0-13.1,0c-3.8,0-7.7,0.1-11.5,0.1c-0.1,0-0.2,0-0.3,0c-0.3,0-0.6,0-0.9,0c-1.6-0.2-2.4-0.9-2.5-2.4
				c-0.4-3.6,0.6-6.6,3.6-9.1c1.7-1.4,3.1-2.9,3.6-5c0.2-0.6,0.2-1.2,0.3-1.8c0.1-1.1,0.7-1.8,1.9-1.9c0.5,0,1-0.1,1.4-0.1
				c0.2,0,0.5,0,0.7,0l0,0C42.4,103.1,53.2,103.1,61.3,103.1 M61.3,102.1v1V102.1c-5.3,0-11.9,0-16.4,0c-2.3,0-4.1,0-4.9,0h-0.4
				h-0.4c-0.5,0-1,0-1.5,0.1c-1.7,0.2-2.7,1.2-2.8,2.8c-0.1,0.7-0.1,1.1-0.3,1.6c-0.5,1.6-1.5,3-3.3,4.5c-3.1,2.5-4.4,5.9-4,9.9
				c0.2,2,1.3,3.1,3.4,3.3c0.4,0,0.7,0.1,1,0.1H32c1.3,0,2.7,0,4,0c2.5,0,5,0,7.4,0c4.4,0,8.7,0,13.1,0c4.9,0,9.7,0,14.6,0
				c12.3,0,24.5,0,36.8,0.1c0.3,0,0.6,0,0.9,0s0.6,0,0.9,0c0.6,0,1.1,0,1.6-0.1c1.8-0.3,2.7-1.2,3-2.8c0.7-4.1-0.6-7.5-3.7-10.2
				c-2.5-2.2-3.7-4.1-3.8-6.3c-0.1-1.6-1.2-2.6-3-2.7c-0.3,0-0.5,0-0.8,0c-0.5,0-1,0-1.5,0c-5.5,0-11.1,0-16.6,0H76h-4h-0.2
				c-0.1,0-0.4,0-0.6,0h-0.3c-0.6,0-1,0-1.1,0C68.7,102.1,65.8,102.1,61.3,102.1L61.3,102.1z"/>
		</g>
		<g>
			<path class="st1" d="M91.3,56.1c-4.5-0.1-9.1-0.2-13.6-0.3c-2,0-4,0-6,0c-3.3,0-6.5,0-9.8,0.1h-3.3c-1.2,0-2.4,0-3.6,0.1
				c-1.5,0-3.1,0.1-4.6,0.1h-0.8c-3.9,0-6.8-2.2-8.9-4l-1-0.9h62.4l-0.9,0.9c-2.9,2.8-6.1,4.1-9.6,4.1L91.3,56.1z"/>
			<path class="st0" d="M100.8,51.7c-2.6,2.5-5.6,4-9.3,4c-0.1,0-0.2,0-0.3,0c-4.5-0.1-9.1-0.2-13.6-0.3c-2,0-4,0-6.1,0
				c-4.4,0-8.7,0.1-13.1,0.1c-2.7,0-5.4,0.1-8.1,0.1c-0.3,0-0.5,0-0.8,0c-3.4,0-6.1-1.7-8.6-3.9C61,51.7,80.9,51.7,100.8,51.7
				 M103.3,50.7h-2.5H41h-2.6l1.9,1.7c2.1,1.9,5.1,4.1,9.2,4.2c0.3,0,0.5,0,0.8,0c1.5,0,3.1,0,4.6-0.1c1.2,0,2.4-0.1,3.6-0.1h3.3
				c3.2,0,6.5-0.1,9.8-0.1c2.2,0,4.2,0,6,0c4.5,0.1,9.1,0.2,13.6,0.3c0.1,0,0.2,0,0.3,0c3.7,0,6.9-1.4,10-4.3L103.3,50.7L103.3,50.7
				z"/>
		</g>
		<g>
			<path class="st0" d="M113.7,110.3c-0.8-0.8-1.6-1.5-2.4-2.3s-1.4-1.6-1.4-2.7c-0.2-3.1-1.9-5.1-5-5.6c-0.3,0-0.4-0.1-0.5-0.5
				c-0.1-1.1-0.2-2.1-0.4-3.2c-0.6-4.9-1.3-9.8-1.9-14.6c-0.6-5.2-1.2-10.3-1.8-15.5c-0.3-2.6-0.6-5.2-1-7.8c-0.1-0.5,0-0.7,0.5-1
				c2.5-1.6,4.9-3.3,6.5-5.8c0.1-0.1,0.2-0.2,0.4-0.3c2.2-1.2,2.9-3.1,3.1-5.2c0.5-6,1.2-12.1,2.1-18.1c0.6-3.8-1.2-6.4-5.2-7.3
				c-3.1-0.7-6.3-1.1-9.4-1.3c-2.6-0.2-4.6,1-5.7,3.2c-0.2,0.4-0.4,0.9-0.6,1.4c-0.7,1.9-1.2,3.9-1.7,5.9c-0.1,0.5-0.4,0.7-1,0.6
				c-0.7-0.1-1.5-0.1-2.2-0.2c-1.2-0.1-1.3-0.1-1.3-1.2c0-1.9,0-3.7-0.1-5.6c-0.2-3.5-2.3-5.7-6-5.9c-5.3-0.2-10.7-0.3-16.1,0
				c-3.5,0.2-5.6,2.4-5.8,5.7c-0.1,1.7-0.1,3.4-0.1,5.2c0,1.7,0,1.7-1.8,1.9c-0.2,0-0.3,0-0.5,0c-1.9,0.2-1.8,0.2-2.3-1.5
				c-0.6-2.2-1-4.4-2.1-6.4c-1.1-2.1-2.9-3.3-5.5-3.1c-3.4,0.3-6.9,0.7-10.2,1.5c-3.2,0.8-5,3.4-4.6,6.4c0.9,6.4,1.6,12.9,2.2,19.3
				c0.1,1.5,0.6,2.9,1.9,4c0.8,0.7,1.6,1.5,2.3,2.3c1.3,1.5,2.8,2.9,4.6,4c1.3,0.7,1.7,1.5,1.5,2.9c-0.8,5.7-1.4,11.5-2.1,17.3
				c-0.9,7.5-1.9,15-2.8,22.5c-0.1,0.5-0.3,0.7-0.7,0.8c-2.7,0.6-4.4,2.3-4.6,4.8c-0.1,1.8-1.1,3.2-2.5,4.4
				c-3.9,3.2-5.5,7.1-5.1,11.9c0.2,2.9,1.7,5,4.4,5.8c1.5,0.4,2.7,0.4,3.1,0.4c4.7-0.2,20.9-0.2,37.4-0.1c0,0,0,0,0.1,0
				c6.7,0,31.3,0.4,41.2,0c1.1,0,3.5-0.1,5-1.8c0.7-0.8,1.3-1.8,1.5-3C118,117.7,117,113.6,113.7,110.3z M110.5,123.3
				c0,0-0.2,0-0.3,0c-0.2,0-0.3,0-0.5,0c-0.3,0-0.5,0-0.8,0s-0.6,0-0.9,0c-6.1,0-12.3,0-18.4,0s-12.3,0-18.4,0c-4.8,0-9.7,0-14.5,0
				c-4.4,0-8.8,0-13.1,0c-1,0-1.9,0-2.9,0c-1.9,0-3.8,0-5.7,0c-1,0-1.9,0-2.9,0l0,0c-0.1,0-0.2,0-0.3,0c-0.3,0-0.6,0-0.8,0l0,0
				c-0.2,0-0.4-0.1-0.6-0.1c-1.2-0.3-1.8-1-2-2.3c0-0.4-0.1-0.9-0.1-1.3s0-0.9,0.1-1.3c0.1-1.2,0.5-2.4,1.1-3.5s1.4-2.1,2.5-3
				c0.4-0.3,0.8-0.7,1.2-1.1c0.9-0.9,1.7-2,2.2-3.2c0.1-0.2,0.2-0.5,0.3-0.8c0.2-0.6,0.2-1.2,0.3-1.8c0.1-0.6,0.2-1,0.5-1.3
				s0.8-0.5,1.4-0.6l0,0c0.3,0,0.7,0,1,0c0.1,0,0.2,0,0.3,0c0.3,0,0.6,0,0.8,0l0,0h0.1c9.9,0,19.8,0,29.6,0l0,0l0,0c0,0,0.9,0,1.5,0
				l0,0c0.3,0,0.6,0,0.7,0H72c9.7,0,19.3,0,29,0c0.2,0,0.4,0,0.6,0c0.4,0,0.7,0,1.1,0s0.7,0,1.1,0s0.8,0.1,1.2,0.3
				c0.2,0.1,0.4,0.3,0.5,0.4c0.2,0.3,0.3,0.6,0.4,1c0.1,3,1.9,5.1,4.1,7.1c2.6,2.2,3.7,4.9,3.5,7.9c0,0.4-0.1,0.9-0.1,1.3
				c-0.1,0.6-0.3,1.1-0.6,1.4c-0.1,0.1-0.2,0.2-0.3,0.2c-0.3,0.2-0.5,0.2-0.8,0.3C111.7,123.1,111.2,123.3,110.5,123.3z M42.4,99.5
				c-0.9,0-1.1,0-1.1-0.4c0-0.1,0-0.3,0.1-0.6c0.2-1.7,0.4-3.5,0.7-5.2c0.4-3.5,0.9-7,1.3-10.5c0.2-1.7,0.4-3.5,0.6-5.2
				c0.4-3.5,0.8-6.9,1.2-10.4c0.3-2.6,0.6-5.2,0.9-7.8l0,0c0-0.1,0-0.2,0.1-0.2c0,0,0,0,0-0.1c0,0,0-0.1,0.1-0.1c0,0,0,0,0.1,0h0.1
				c0,0,0,0,0.1,0s0.2,0,0.3,0c0.4,0.1,0.8,0.1,1.2,0.2c0.1,0,0.3,0,0.4,0c0.3,0,0.5,0.1,0.8,0.1c0.1,0,0.3,0,0.4,0
				c0.3,0,0.5,0,0.8,0c0.1,0,0.3,0,0.4,0c0.1,0,0.2,0,0.2,0c0.1,0,0.3,0,0.4,0c0.3,0,0.6,0,0.8,0s0.4,0,0.6,0c0.3,0,0.6,0,1,0
				c0.3,0,0.7,0,1,0c0.2,0,0.4,0,0.6,0c0.3,0,0.6,0,1,0c0.2,0,0.3,0,0.5,0l0,0c0.1,0,0.2,0,0.2,0c0.6,0,1.3,0,1.9,0
				c1.1,0,2.2,0,3.3-0.1c0,0,0,0,0.1,0c2.3,0,4.6,0,6.8,0c0.7,0,1.4,0,2.1,0c1.5,0,3.1,0,4.6,0c0.7,0,1.3,0,2,0c2,0,4,0,6.1,0.1h0.1
				c2.5,0,4.9,0.1,7.4,0.2c0.1,0,0.3,0,0.4,0s0.1,0,0.2,0s0.2,0,0.3,0c0.2,0,0.3,0,0.5,0c0.1,0,0.2,0,0.3,0c0.2,0,0.3,0,0.5-0.1
				c0.1,0,0.2,0,0.3,0c0.2,0,0.5-0.1,0.7-0.2l0,0c0.2,0,0.3-0.1,0.4-0.1c0,0,0,0,0.1,0s0.1,0,0.2,0.1c0,0,0,0,0.1,0l0.1,0.1
				c0,0,0,0,0,0.1s0.1,0.2,0.1,0.3c0.3,2.7,0.6,5.4,0.9,8.1c0.3,2.6,0.6,5.2,0.9,7.8c0.3,2.6,0.6,5.2,0.9,7.8
				c0.6,5.2,1.3,10.3,2,15.5c0,0.2,0,0.3,0,0.4c0,0,0,0,0,0.1s0,0.1-0.1,0.2c0,0-0.1,0-0.1,0.1c0,0-0.1,0.1-0.2,0.1s-0.1,0-0.2,0
				s-0.1,0-0.2,0l0,0c-5.8,0-11.5,0-17.3,0c-3.9,0-7.7,0-11.6,0C61.4,99.5,51.9,99.5,42.4,99.5z M42.9,53.2c-0.7-0.5-1.3-1-1.9-1.6
				c20,0,39.8,0,59.8,0l0,0c-0.3,0.3-0.6,0.6-1,0.9c-0.1,0.1-0.2,0.2-0.4,0.3c-0.2,0.2-0.5,0.4-0.7,0.5c-0.1,0.1-0.3,0.2-0.4,0.3
				c-0.2,0.1-0.4,0.3-0.7,0.4c-0.2,0.1-0.3,0.2-0.5,0.2c-0.2,0.1-0.4,0.2-0.7,0.3c-0.2,0.1-0.3,0.1-0.5,0.2
				c-0.2,0.1-0.4,0.2-0.7,0.2C95,55,94.8,55,94.6,55.1c-0.2,0.1-0.5,0.1-0.7,0.2c-0.2,0-0.4,0.1-0.6,0.1s-0.5,0.1-0.7,0.1
				s-0.4,0-0.6,0c-0.3,0-0.6,0-0.9,0c-2.3,0-4.5-0.1-6.8-0.1s-4.5-0.1-6.8-0.1l0,0c-1.9,0-3.7,0-5.6,0c-0.2,0-0.3,0-0.5,0
				c-0.4,0-0.9,0-1.3,0c-1.5,0-3,0-4.5,0c-0.7,0-1.4,0-2.1,0c-1.4,0-2.7,0-4.1,0c-0.3,0-0.7,0-1,0l0,0c-1.3,0-2.7,0-4,0.1
				c-1.2,0-2.4,0.1-3.6,0.1c-0.4,0-0.8,0-1.3,0C47,55.6,44.9,54.6,42.9,53.2z M35.9,45.4c-0.4-4.3-0.8-8.5-1.4-12.8
				c-0.3-1.9-0.5-3.9-0.8-5.8c-0.3-1.7,0.4-2.6,2.2-3.1c2.8-0.7,5.8-1,8.7-1.3c1.2-0.1,1.8,0.2,2.3,1.4c0.9,2,1.3,4.2,1.9,6.3
				c0.8,2.9,1.6,3.5,4.8,3.4c1.6,0,3.2-0.2,4.8-0.3c1-0.1,1.6-0.6,1.9-1.4c0.5-1.3,0.5-2.7,0.6-4c0.1-1.5,0-3,0.1-4.5
				c0-1.7,0.7-2.4,2.5-2.5c4.4-0.2,8.8-0.1,13.3-0.1c0.8,0,1.6,0,2.4,0.1c1,0.1,1.6,0.7,1.8,1.6c0.1,0.5,0.1,1,0.1,1.5
				c0,2.1-0.1,4.2,0.2,6.2c0.1,0.7,0.2,1.5,0.6,2.1c0.2,0.4,0.5,0.8,1.1,0.9c2.4,0.3,4.8,0.6,7.2,0.4c1.4-0.2,2.4-0.9,2.8-2.3
				c0.6-2.2,1.1-4.5,1.9-6.6c0.1-0.4,0.3-0.8,0.5-1.2c0.3-0.6,0.9-1,1.6-0.9c3.2,0.3,6.3,0.6,9.4,1.4c1.4,0.4,2,1.2,1.8,2.6
				c-0.4,3.6-0.9,7.1-1.3,10.7c-0.3,2.7-0.6,5.4-0.8,8.2c-0.2,2.1-0.9,2.8-3.2,2.8c-10.6,0-21.3,0-31.9,0s-21.3,0-31.9,0
				C36.8,48.1,36.1,47.5,35.9,45.4z"/>
		</g>
	</g>
</g>
</svg>
