<?xml version="1.0" encoding="utf-8"?>
<!-- Generator: Adobe Illustrator 26.1.0, SVG Export Plug-In . SVG Version: 6.00 Build 0)  -->
<svg version="1.1"
	 id="Слой_1" shape-rendering="geometricPrecision" text-rendering="geometricPrecision" image-rendering="optimizeQuality" xmlns:cc="http://creativecommons.org/ns#" xmlns:dc="http://purl.org/dc/elements/1.1/" xmlns:rdf="http://www.w3.org/1999/02/22-rdf-syntax-ns#"
	 xmlns="http://www.w3.org/2000/svg" xmlns:xlink="http://www.w3.org/1999/xlink" x="0px" y="0px" viewBox="0 0 141.7 141.7"
	 style="enable-background:new 0 0 141.7 141.7;" xml:space="preserve">
<style type="text/css">
	.st0{fill:#1C1C1C;}
	.st1{fill:#FDFDFD;}
	.st2{fill:#484342;}
</style>
<path class="st0" d="M40,63.6c0-6.1,0-12.1,0-18.1c0-0.9-0.3-1.9-0.2-2.8c0.1-0.5-0.3-0.5-0.6-0.7c-4.4-2.1-6.9-6.4-6.7-11.2
	c0.3-5.2,4.2-9.4,9.6-10.1c4.6-0.6,9.4,1.8,11.1,7c1.4,4.2,0.7,8.1-2.2,11.6c-0.4,0.5-0.4,0.7-0.1,1.3c1.1,2.6,2.1,5.2,3.3,7.7
	c1.7,3.8,3.4,7.5,5.2,11.2c0.1,0.2,0.1,0.4,0.5,0.5c0.5-2.1,0.9-4.1,1.4-6.1c1.1-5,2.3-10,3.4-15.1c0.3-1.2,0.2-2.4,0.7-3.5
	c0.2-0.3-0.2-0.5-0.4-0.7c-3.6-2.6-5.1-6.1-4.8-10.5c0.4-5.1,5.1-9.7,10.2-9.9c4.6-0.2,9.2,2.8,10.9,7.2c1.7,4.5,0.5,9.6-3.2,12.6
	c-0.8,0.7-0.9,1.2-0.7,2.2c1.4,7.8,3.5,15.4,5.1,23.1c0,0.1,0.1,0.2,0.2,0.6c0.5-1.1,1-2.1,1.4-3.1c2-4.4,4.1-8.8,6.1-13.2
	c0.5-1.1,0.8-2.3,1.3-3.4c0.3-0.5-0.2-0.7-0.5-1c-3.6-4.1-3.8-10.6-0.5-14.7c2.8-3.5,6.5-4.6,10.7-3.6c4.1,0.9,6.8,3.6,7.8,7.6
	c1.4,5.6-0.8,10.5-5.9,13.3c-0.2,0.1-0.5,0.2-0.5,0.6c0,6.9,0,13.8,0,20.7c0,0,0.1,0.1,0.1,0.2c0.5-0.4,0.8-0.9,1.1-1.3
	c2.8-3.7,5.7-7.4,8.5-11c0.4-0.5,0.1-0.7-0.1-1.1c-2.1-3.5-2.4-7-0.8-10.8c2-4.7,6.6-7,12-6.2c4.4,0.7,7.7,4.4,8.1,9.3
	c0.4,4.5-0.9,8.2-4.7,10.9c-1.2,0.8-2.5,1.3-3.9,1.5c-0.6,0.1-0.9,0.3-1.1,1c-0.4,2.1-1.5,4-2.1,6c-3.4,10.5-6.8,21.1-10.2,31.6
	c-0.3,0.8-0.8,1.6-0.9,2.4c-0.1,0.9,1,1.2,1.5,2c1.5,2.5,0.9,6.2-1.5,8.2c-0.5,0.4-0.6,0.7-0.4,1.3c0.4,1.1,1.1,2,1.8,2.8
	c1.7,2.2,3.4,4.4,4.2,7.1c1.4,4.5-1,8.3-5.6,9.1c-1.3,0.2-2.5,0.3-3.8,0.3c-11,0-22.1,0-33.1,0c-11.6,0-23.2,0-34.8,0
	c-1.5,0-2.9-0.1-4.4-0.4c-3.8-0.9-5.8-4.2-5-8c0.5-2.4,1.7-4.5,3.2-6.5c1.1-1.3,2.2-2.6,3-4.2c0.3-0.7,0.3-1.2-0.4-1.7
	c-3-2.5-3-7.2,0.1-9.6c0.3-0.2,0.5-0.4,0.4-0.9c-1.6-4.6-3.1-9.3-4.7-13.9c-2.8-8.3-5.5-16.6-8.2-25c-0.4-1.1-0.8-1.5-1.9-1.7
	c-4.8-0.8-8.3-4.7-8.6-9.6c-0.2-2.9,0.2-5.7,2-8.1c2.5-3.4,6-4.6,10.1-4c4.4,0.7,7.4,3.3,8.8,7.6c1,3.2,0.5,6.2-1.2,9.1
	c-0.3,0.5-0.3,0.7,0.1,1.2c1.9,2.4,3.8,4.9,5.6,7.4c1.2,1.6,2.4,3.2,3.6,4.8C39.4,63.2,39.6,63.4,40,63.6z M35.4,64.3
	c-2.5-3.4-5.3-6.6-7.7-10.1 M54,56.6c-1.2-2.7-2.5-5.4-3.6-8.1c-0.8-1.9-1.5-3.8-2.2-5.7"/>
<path class="st1" d="M71,36.8c0.1,0,0.2,0,0.3-0.1c2.1-0.3,2-0.2,2.4,1.8c0.7,3.5,1.5,6.9,2.3,10.3c1.3,6.1,2.8,12.2,3.9,18.4
	c0.1,0.8,0.2,1.7,1.3,1.8c0.8,0.1,1.3-0.3,1.6-1c2.5-6,5.3-11.8,8-17.7c1.1-2.4,2.4-4.7,3.1-7.3c0.2-0.7,0.6-0.9,1.3-0.6
	c0.9,0.4,1.8,0.6,2.8,0.7c0.5,0,0.7,0.2,0.7,0.8c0,8.2,0,16.5-0.1,24.7c0,0.6-0.1,1.2-0.1,1.9c-0.1,0.8,0.1,1.5,0.9,1.9
	c0.8,0.3,1.4-0.1,1.9-0.8c1.3-1.8,2.6-3.5,3.9-5.3c3-3.9,6-7.9,8.9-11.8c0.8-1.1,1-1.1,2.2-0.5c2.1,1,1.8,1.1,1.1,3
	c-1.6,4.1-2.8,8.2-4.2,12.4c-2.6,8.1-5.2,16.2-7.9,24.3c-0.2,0.7-0.5,1-1.4,0.8C97,92.7,90.1,91.5,83,91c-3.8-0.3-7.6-0.4-11.4-0.4
	c-0.3,0-0.6,0-0.9-0.1c0-0.3,0-0.7,0-1c0.1-8.2,0.1-16.5,0.2-24.7C70.9,55.4,71,46.1,71,36.8z"/>
<path class="st2" d="M71,36.8c0,9.3-0.1,18.6-0.1,27.8c0,8.2-0.1,16.5-0.2,24.7c0,0.3,0,0.7,0,1c-1.3,0-2.6,0-3.8,0
	c-3.6,0.1-7.2,0.4-10.8,0.7c-3,0.3-6,0.7-8.9,1.2c-3.1,0.5-6.3,1-9.4,1.9c-0.7,0.2-1.2,0-1.4-0.7c-1.5-4.9-3-9.8-4.6-14.7
	c-1.8-5.4-3.5-10.8-5.3-16.1c-0.8-2.4-1.6-4.8-2.4-7.2c-0.2-0.7,0-1.1,0.7-1.4c0.3-0.1,0.6-0.2,0.8-0.4c1.2-0.7,1.5-0.7,2.2,0.4
	c2.4,3.5,5.1,6.7,7.7,10.1c1.8,2.4,3.6,4.7,5.3,7.1c0.4,0.6,1,0.9,1.7,0.7c0.7-0.2,1.2-0.8,1.2-1.6c0-1.2-0.1-2.3-0.1-3.4
	c-0.1-7.8,0-15.5,0-23.3c0-0.6,0.1-0.8,0.7-0.9c1.1-0.2,2.2-0.2,3.1-0.8c0.5-0.3,0.7,0.2,0.8,0.6c0.7,1.9,1.4,3.8,2.2,5.7
	c1.1,2.7,2.4,5.4,3.6,8.1c1.5,3.3,3,6.6,4.4,9.9c0.2,0.5,0.4,1.1,0.7,1.6c0.3,0.7,0.9,1,1.6,0.9c0.6-0.1,1-0.5,1.2-1.3
	c0.5-2.8,1.1-5.7,1.7-8.5c0.9-4.3,1.8-8.5,2.8-12.7c0.5-2.2,1-4.4,1.5-6.5c0.2-0.7,0.1-1.5,0.3-2.2c0.2-0.9,0.6-1.3,1.4-1.1
	C70,36.7,70.6,36.4,71,36.8z"/>
<path class="st1" d="M70.7,102.7c4.7-0.1,9.4,0.2,14.1,0.8c6,0.7,12,1.8,17.9,3.3c1,0.2,1.7,0.8,2,1.7c0.5,1.5,1.4,2.8,2.4,4.1
	c1.2,1.5,2.4,2.9,3.1,4.6c0.2,0.4,0.3,0.8,0.4,1.2c0.6,2.4-0.5,4-3,4.3c-0.8,0.1-1.6,0.1-2.4,0.1c-11.2,0-22.4,0-33.7,0
	c-0.4,0-0.8,0.1-1.2-0.2c0.1-3.1,0.1-6.2,0.2-9.3C70.6,109.8,70.7,106.3,70.7,102.7z"/>
<path class="st2" d="M70.7,102.7c0,3.6-0.1,7.2-0.1,10.8c0,3.1-0.1,6.2-0.2,9.3c-12.1,0-24.1,0.1-36.2,0c-3,0-4.3-1.9-3.2-4.8
	c0.8-2.2,2.3-3.9,3.6-5.7c0.9-1.2,1.9-2.5,2.3-4c0.3-1,1-1.2,1.8-1.4c3.4-0.8,6.8-1.6,10.2-2.2c3-0.5,6-0.9,9-1.4
	c0.8-0.1,1.7-0.2,2.5-0.2c3.1-0.1,6.2-0.6,9.3-0.4C70.1,102.6,70.4,102.7,70.7,102.7z"/>
<path class="st1" d="M79.5,94.5c3.7,0.3,7.4,0.6,11.1,1.2c4.8,0.7,9.5,1.7,14.2,2.8c0.5,0.1,1.1,0.4,1.5,0.7c1,0.7,1.2,1.7,0.6,3.1
	c-0.5,1-1.3,1.4-2.5,1.1c-4.4-1-8.8-2.1-13.2-2.8c-6.5-1-13.1-1.6-19.8-1.7c-0.2,0-0.5,0-0.7,0c0-1.5,0-3,0-4.4c2.4-0.1,4.7,0,7.1,0
	c0.3,0,0.6,0,0.9,0C78.9,94.6,79.2,94.6,79.5,94.5z"/>
<path class="st2" d="M70.7,94.4c0,1.5,0,3,0,4.4c-1.1,0-2.1,0-3.2,0c-3.5,0-6.9,0.4-10.3,0.7c-4.1,0.4-8.2,1.1-12.3,1.9
	c-2.6,0.5-5.1,1.2-7.7,1.7c-1.2,0.3-2.4-0.5-2.7-1.7c-0.3-1.2,0.4-2.5,1.6-2.9c3.7-1.1,7.6-1.8,11.4-2.5c3.8-0.7,7.5-1.2,11.3-1.6
	C62.7,94.2,66.7,94.3,70.7,94.4z"/>
<path class="st1" d="M105.7,31.7c-0.1,3.6-2.8,6.9-6,7.4c-3.7,0.5-7.1-1.8-7.9-5.5c-0.6-2.5-0.3-4.8,1.3-6.8c1.8-2.3,5.1-3.1,8-2
	C104,25.8,105.8,28.5,105.7,31.7z"/>
<path class="st1" d="M121.1,36.6c4.1,0,6.9,3,6.9,7.3c0,4.3-3,7.5-7.1,7.4c-3.9,0-7-3.4-7-7.6C114,39.6,117.1,36.5,121.1,36.6z"/>
<path class="st2" d="M43.3,24.4c3.9-0.3,6.9,3,7,7.1c0.1,4.2-3.6,7.7-7,7.6c-3.9-0.1-7.1-3.6-7.1-7.6C36.1,27.5,39.1,24.3,43.3,24.4
	z"/>
<path class="st2" d="M27.9,43.7c0.1,3.8-2.7,7.2-6.7,7.5c-3,0.3-6.4-2.3-6.9-5.3c-0.4-2.2-0.5-4.3,0.7-6.3c0.9-1.6,2.4-2.6,4.2-2.9
	c2.7-0.5,5.1,0,7,2.1C27.2,40.2,28,41.8,27.9,43.7z"/>
<path class="st2" d="M71,32.9c-3.4,0.1-5.7-1.6-6.9-4.6c-1.7-4.3,1-9,5.4-10c0.6-0.1,1.3-0.5,1.9-0.1c-0.3,0.2-0.2,0.6-0.2,0.9
	c0,2.8,0,5.5-0.1,8.3C71,29.1,71.2,31,71,32.9z"/>
<path class="st1" d="M71,32.9c0.2-1.9,0.1-3.7,0.1-5.6c0.1-2.8,0.1-5.5,0.1-8.3c0-0.3-0.1-0.6,0.2-0.9c4.4,0.4,7.1,4.3,6.9,8.1
	c-0.1,2.1-1.4,4.3-3,5.5c-0.5,0.3-1.8,1.3-3.5,1.3C71.4,32.9,71.1,32.9,71,32.9z"/>
<path class="st2" d="M79.5,94.5c-0.3,0.1-0.5,0.1-0.8-0.1C79,94.1,79.2,94.1,79.5,94.5z"/>
</svg>
